<?xml version="1.0" encoding="UTF-8"?>
<svg width="272px" height="53px" viewBox="0 0 272 53" version="1.1" xmlns="http://www.w3.org/2000/svg" xmlns:xlink="http://www.w3.org/1999/xlink">
    <!-- Generator: Sketch 44.1 (41455) - http://www.bohemiancoding.com/sketch -->
    <title>aarp logo-knockout</title>
    <desc>Created with Sketch.</desc>
    <defs>
        <polygon id="path-1" points="0 52.0954139 271.916308 52.0954139 271.916308 8.69864699e-05 0 8.69864699e-05"></polygon>
    </defs>
    <g id="Symbols" stroke="none" stroke-width="1" fill="none" fill-rule="evenodd">
        <g id="Footer-2" transform="translate(-24.000000, -21.000000)">
            <g id="Group-3">
                <g id="aarp-logo-knockout" transform="translate(24.000000, 21.000000)">
                    <g id="Page-1">
                        <g>
                            <path d="M135.719021,2.822363 C135.117482,2.19606042 134.280559,2.15691651 133.46979,2.15691651 L132.750559,2.15691651 L132.750559,8.34165451 L133.679021,8.34165451 C134.267482,8.34165451 134.908251,8.3025106 135.418251,7.96326337 C136.268251,7.38915267 136.503636,6.17569141 136.503636,5.2101416 C136.503636,4.36202352 136.320559,3.44866558 135.719021,2.822363 Z M136.242097,9.34634824 C135.313636,9.82912315 134.254405,9.85521909 133.234405,9.85521909 L130.972097,9.85521909 L130.972097,0.643351931 L133.404405,0.643351931 C134.581328,0.643351931 135.653636,0.721639754 136.634405,1.43927813 C137.811328,2.30044418 138.308251,3.82705673 138.308251,5.23623754 C138.308251,6.801994 137.706713,8.57651798 136.242097,9.34634824 Z" id="Fill-1" fill="#FEFEFE"></path>
                            <path d="M142.323041,4.42700241 C141.486118,4.42700241 141.040631,4.98806514 140.884579,5.74484743 L143.616785,5.74484743 C143.526118,5.00111311 143.13381,4.42700241 142.323041,4.42700241 L142.323041,4.42700241 Z M140.832272,6.98440462 C140.896785,7.98909835 141.381503,8.68064079 142.440733,8.68064079 C143.002169,8.68064079 143.472938,8.47187326 143.709195,7.93690647 L145.212169,8.00214632 C145.186015,8.13262603 145.146785,8.26310573 145.095349,8.39358544 C144.650733,9.52875887 143.539195,10.0376297 142.375349,10.0376297 C140.335349,10.0376297 139.132272,8.64149688 139.132272,6.65820536 C139.132272,4.70100979 140.256887,3.10915739 142.336118,3.10915739 C144.467656,3.10915739 145.369964,4.77929761 145.34381,6.6843013 L145.34381,6.98440462 L140.832272,6.98440462 Z" id="Fill-3" fill="#FEFEFE"></path>
                            <path d="M150.640051,9.85521909 L150.640051,6.1365475 C150.640051,5.37976522 150.482256,4.64907887 149.567744,4.64907887 C149.292256,4.64907887 149.056872,4.72736669 148.835436,4.89699031 C148.325436,5.28842942 148.325436,5.90168403 148.325436,6.48884271 L148.325436,9.85521909 L146.625436,9.85521909 L146.625436,5.30147739 C146.625436,4.70127075 146.625436,3.85315267 146.415333,3.29208994 L148.063897,3.29208994 C148.18159,3.55304935 148.207744,3.8401047 148.220821,4.12716005 C148.625333,3.4878095 149.423026,3.14856226 150.169282,3.14856226 C150.84841,3.14856226 151.555436,3.42256964 151.960821,3.98363237 C152.326103,4.49250322 152.353128,5.18404566 152.353128,5.7842523 L152.353128,9.85521909 L150.640051,9.85521909 Z" id="Fill-5" fill="#FEFEFE"></path>
                            <path d="M157.753113,9.68568246 C157.269267,9.88140202 156.798497,9.99883375 156.262344,9.99883375 C155.464651,9.99883375 154.771574,9.64653855 154.483882,8.87670829 C154.379267,8.57660497 154.353985,8.27650165 154.353985,7.96335036 C154.353985,7.70239095 154.36619,7.42838357 154.379267,7.16742416 L154.457728,4.62306991 L153.437728,4.62306991 L153.437728,3.29217692 L154.510036,3.29217692 L154.562344,1.38717323 L156.210036,1.38717323 L156.183882,3.29217692 L157.517728,3.29217692 L157.517728,4.62306991 L156.157728,4.62306991 C156.144651,5.61471567 156.118497,6.60636143 156.118497,7.59800718 C156.118497,8.119926 156.157728,8.49831715 156.811574,8.49831715 C157.125421,8.49831715 157.479369,8.38088541 157.767062,8.27650165 L157.753113,9.68568246 Z" id="Fill-7" fill="#FEFEFE"></path>
                            <path d="M160.251067,7.89802352 C160.251067,8.45908625 160.787221,8.69394972 161.271067,8.69394972 C162.212605,8.69394972 162.486349,8.04155119 162.486349,7.21952905 L162.486349,6.72370617 C161.76799,6.78894603 160.251067,6.90637776 160.251067,7.89802352 L160.251067,7.89802352 Z M162.801067,9.85521909 C162.735682,9.59425968 162.708656,9.37244418 162.722605,9.11148477 C162.303272,9.7638833 161.702605,9.99874677 160.930195,9.99874677 C159.714913,9.99874677 158.511836,9.51597186 158.511836,8.11983902 C158.511836,6.09740359 160.995579,5.83644418 162.486349,5.58853274 L162.486349,5.48414898 C162.486349,4.77955857 162.198656,4.49250322 161.493374,4.49250322 C160.944144,4.49250322 160.486451,4.64907887 160.368759,5.24928551 L158.746349,5.24928551 C158.904144,3.65743311 160.197887,3.14856226 161.649426,3.14856226 C162.27799,3.14856226 163.049528,3.265994 163.533374,3.68352905 C164.14799,4.20544787 164.134913,5.01442204 164.134913,5.74510839 L164.134913,8.3938464 C164.134913,8.86357333 164.120964,9.43768403 164.357221,9.85521909 L162.801067,9.85521909 Z" id="Fill-9" fill="#FEFEFE"></path>
                            <mask id="mask-2" fill="white">
                                <use xlink:href="#path-1"></use>
                            </mask>
                            <g id="Clip-12"></g>
                            <polygon id="Fill-11" fill="#FEFEFE" mask="url(#mask-2)" points="165.860718 9.85478416 167.560718 9.85478416 167.560718 0.577677146 165.860718 0.577677146"></polygon>
                            <polygon id="Fill-13" fill="#FEFEFE" mask="url(#mask-2)" points="173.196872 9.85565402 174.975333 9.85565402 174.975333 0.643786863 173.196872 0.643786863"></polygon>
                            <path d="M180.911908,9.85521909 L180.911908,6.1365475 C180.911908,5.37976522 180.754985,4.64907887 179.8396,4.64907887 C179.564985,4.64907887 179.3296,4.72736669 179.107292,4.89699031 C178.597292,5.28842942 178.597292,5.90168403 178.597292,6.48884271 L178.597292,9.85521909 L176.897292,9.85521909 L176.897292,5.30147739 C176.897292,4.70127075 176.897292,3.85315267 176.688062,3.29208994 L178.335754,3.29208994 C178.453446,3.55304935 178.4796,3.8401047 178.492677,4.12716005 C178.898062,3.4878095 179.695754,3.14856226 180.441138,3.14856226 C181.121138,3.14856226 181.827292,3.42256964 182.232677,3.98363237 C182.598831,4.49250322 182.624985,5.18404566 182.624985,5.7842523 L182.624985,9.85521909 L180.911908,9.85521909 Z" id="Fill-14" fill="#FEFEFE" mask="url(#mask-2)"></path>
                            <path d="M188.784477,9.50309786 C188.273605,9.92063292 187.489862,10.0380646 186.862169,10.0380646 C185.306015,10.0380646 183.919862,9.49004989 183.919862,7.70247793 L183.919862,7.66333402 L185.528323,7.66333402 C185.540528,8.44621225 186.064477,8.75936354 186.782836,8.75936354 C187.253605,8.75936354 187.816785,8.58973993 187.816785,8.0286772 C187.816785,7.78076576 187.633708,7.65028605 187.423605,7.54590229 C186.914477,7.31103882 186.338221,7.19360708 185.802067,7.02398347 C184.900631,6.73692812 184.154374,6.31939306 184.154374,5.24945948 C184.154374,3.77503882 185.475144,3.09654435 186.782836,3.09654435 C187.82899,3.09654435 188.876015,3.46188753 189.307554,4.4926772 C189.412169,4.74058863 189.463605,5.01459601 189.463605,5.27555542 L187.82899,5.27555542 C187.724374,4.66230081 187.397451,4.37524546 186.757554,4.37524546 C186.352169,4.37524546 185.842169,4.58401299 185.842169,5.05373993 C185.842169,5.58870672 186.587554,5.71918642 186.979862,5.83661815 C187.516015,5.9931938 188.443605,6.24110524 188.876015,6.55425653 C189.319759,6.88045579 189.516785,7.40237461 189.516785,7.9373414 C189.516785,8.53754804 189.255246,9.11165875 188.784477,9.50309786" id="Fill-15" fill="#FEFEFE" mask="url(#mask-2)"></path>
                            <path d="M195.296523,9.85521909 C195.204113,9.60730765 195.177959,9.35939621 195.152677,9.0984368 C194.747292,9.71169141 194.041138,9.99874677 193.321036,9.99874677 C192.576523,9.99874677 191.804985,9.71169141 191.359497,9.0984368 C190.954113,8.53737407 190.902677,7.85887961 190.902677,7.19343311 L190.902677,3.29208994 L192.615754,3.29208994 L192.615754,7.03685747 C192.615754,7.81973569 192.798831,8.49823016 193.726421,8.49823016 C194.7996,8.49823016 195.034113,7.68925599 195.034113,6.78894603 L195.034113,3.29208994 L196.748062,3.29208994 L196.748062,7.81973569 C196.748062,8.51127813 196.708831,9.17672462 196.91719,9.85521909 L195.296523,9.85521909 Z" id="Fill-16" fill="#FEFEFE" mask="url(#mask-2)"></path>
                            <path d="M202.567118,4.96223016 C202.370092,4.7665106 201.808656,4.6360309 201.547118,4.6360309 C200.369323,4.6360309 200.239426,5.914732 200.239426,6.801994 L200.239426,9.85521909 L198.539426,9.85521909 L198.539426,4.46640728 C198.539426,4.0619202 198.513272,3.68352905 198.447015,3.29208994 L200.081631,3.29208994 C200.187118,3.74876891 200.174041,4.17935193 200.174041,4.64907887 C200.526246,3.87924861 201.140862,3.14856226 202.070195,3.14856226 C202.253272,3.14856226 202.409323,3.18770617 202.580195,3.23989806 L202.567118,4.96223016 Z" id="Fill-17" fill="#FEFEFE" mask="url(#mask-2)"></path>
                            <path d="M204.985826,7.89802352 C204.985826,8.45908625 205.521979,8.69394972 206.005826,8.69394972 C206.947364,8.69394972 207.221979,8.04155119 207.221979,7.21952905 L207.221979,6.72370617 C206.502749,6.78894603 204.985826,6.90637776 204.985826,7.89802352 L204.985826,7.89802352 Z M207.535826,9.85521909 C207.470441,9.59425968 207.444287,9.37244418 207.457364,9.11148477 C207.038903,9.7638833 206.437364,9.99874677 205.665826,9.99874677 C204.449672,9.99874677 203.246595,9.51597186 203.246595,8.11983902 C203.246595,6.09740359 205.73121,5.83644418 207.221979,5.58853274 L207.221979,5.48414898 C207.221979,4.77955857 206.934287,4.49250322 206.228133,4.49250322 C205.678903,4.49250322 205.222082,4.64907887 205.103518,5.24928551 L203.481979,5.24928551 C203.638903,3.65743311 204.933518,3.14856226 206.385056,3.14856226 C207.012749,3.14856226 207.784287,3.265994 208.268133,3.68352905 C208.882749,4.20544787 208.869672,5.01442204 208.869672,5.74510839 L208.869672,8.3938464 C208.869672,8.86357333 208.856595,9.43768403 209.091979,9.85521909 L207.535826,9.85521909 Z" id="Fill-18" fill="#FEFEFE" mask="url(#mask-2)"></path>
                            <path d="M214.597713,9.85521909 L214.597713,6.1365475 C214.597713,5.37976522 214.439918,4.64907887 213.525405,4.64907887 C213.249918,4.64907887 213.015405,4.72736669 212.793097,4.89699031 C212.283097,5.28842942 212.283097,5.90168403 212.283097,6.48884271 L212.283097,9.85521909 L210.583097,9.85521909 L210.583097,5.30147739 C210.583097,4.70127075 210.583097,3.85315267 210.372995,3.29208994 L212.021559,3.29208994 C212.139251,3.55304935 212.165405,3.8401047 212.178482,4.12716005 C212.583867,3.4878095 213.381559,3.14856226 214.126944,3.14856226 C214.806072,3.14856226 215.513097,3.42256964 215.918482,3.98363237 C216.284636,4.49250322 216.31079,5.18404566 216.31079,5.7842523 L216.31079,9.85521909 L214.597713,9.85521909 Z" id="Fill-19" fill="#FEFEFE" mask="url(#mask-2)"></path>
                            <path d="M223.005826,8.92881319 C222.481877,9.72473938 221.619672,10.0378907 220.69121,10.0378907 C218.664287,10.0378907 217.526595,8.48518219 217.526595,6.56713053 C217.526595,5.14490175 218.231877,3.68352905 219.683415,3.23989806 C220.024287,3.13551429 220.376492,3.10941835 220.730441,3.10941835 C222.247364,3.10941835 223.267364,3.95753643 223.437364,5.45805304 L221.776595,5.45805304 C221.71121,4.84479843 221.331979,4.46640728 220.703415,4.46640728 C219.605826,4.46640728 219.265826,5.70596448 219.265826,6.59322647 C219.265826,7.5065844 219.5788,8.68090175 220.69121,8.68090175 C221.449672,8.68090175 221.749569,8.19812684 221.841979,7.51963237 L223.489672,7.51963237 C223.462646,8.04155119 223.293518,8.48518219 223.005826,8.92881319" id="Fill-20" fill="#FEFEFE" mask="url(#mask-2)"></path>
                            <path d="M227.478046,4.42700241 C226.641123,4.42700241 226.195636,4.98806514 226.039585,5.74484743 L228.77179,5.74484743 C228.681123,5.00111311 228.288815,4.42700241 227.478046,4.42700241 L227.478046,4.42700241 Z M225.987277,6.98440462 C226.05179,7.98909835 226.536508,8.68064079 227.595738,8.68064079 C228.157174,8.68064079 228.627944,8.47187326 228.8642,7.93690647 L230.367174,8.00214632 C230.341892,8.13262603 230.302662,8.26310573 230.250354,8.39358544 C229.805738,9.52875887 228.6942,10.0376297 227.530354,10.0376297 C225.490354,10.0376297 224.287277,8.64149688 224.287277,6.65820536 C224.287277,4.70100979 225.411892,3.10915739 227.491123,3.10915739 C229.622662,3.10915739 230.524969,4.77929761 230.498815,6.6843013 L230.498815,6.98440462 L225.987277,6.98440462 Z" id="Fill-21" fill="#FEFEFE" mask="url(#mask-2)"></path>
                            <path d="M238.174533,2.15682952 L237.416072,2.15682952 L237.416072,4.89690332 L238.096072,4.89690332 C239.116072,4.89690332 240.332226,4.90995129 240.332226,3.55296236 C240.332226,2.2090214 239.220687,2.15682952 238.174533,2.15682952 M240.266841,6.24084428 C239.456072,6.47570775 238.292226,6.4104679 237.442226,6.4104679 L237.442226,9.8551321 L235.63761,9.8551321 L235.63761,0.643264945 L238.122226,0.643264945 C239.54761,0.643264945 241.116841,0.695456827 241.823867,2.14378155 C242.045303,2.58741255 242.136841,3.10933137 242.136841,3.59210627 C242.136841,4.84471144 241.522226,5.87550111 240.266841,6.24084428" id="Fill-22" fill="#FEFEFE" mask="url(#mask-2)"></path>
                            <polygon id="Fill-23" fill="#FEFEFE" mask="url(#mask-2)" points="243.182821 9.85478416 244.882821 9.85478416 244.882821 0.577677146 243.182821 0.577677146"></polygon>
                            <path d="M248.008641,7.89802352 C248.008641,8.45908625 248.543923,8.69394972 249.028641,8.69394972 C249.970179,8.69394972 250.243923,8.04155119 250.243923,7.21952905 L250.243923,6.72370617 C249.524692,6.78894603 248.008641,6.90637776 248.008641,7.89802352 L248.008641,7.89802352 Z M250.558641,9.85521909 C250.493256,9.59425968 250.466231,9.37244418 250.480179,9.11148477 C250.060846,9.7638833 249.459308,9.99874677 248.687769,9.99874677 C247.472487,9.99874677 246.26941,9.51597186 246.26941,8.11983902 C246.26941,6.09740359 248.753154,5.83644418 250.243923,5.58853274 L250.243923,5.48414898 C250.243923,4.77955857 249.956231,4.49250322 249.250949,4.49250322 C248.701718,4.49250322 248.244026,4.64907887 248.126333,5.24928551 L246.503923,5.24928551 C246.660846,3.65743311 247.955462,3.14856226 249.407,3.14856226 C250.034692,3.14856226 250.807103,3.265994 251.290949,3.68352905 C251.905564,4.20544787 251.891615,5.01442204 251.891615,5.74510839 L251.891615,8.3938464 C251.891615,8.86357333 251.878538,9.43768403 252.114795,9.85521909 L250.558641,9.85521909 Z" id="Fill-24" fill="#FEFEFE" mask="url(#mask-2)"></path>
                            <path d="M257.619656,9.85521909 L257.619656,6.1365475 C257.619656,5.37976522 257.462733,4.64907887 256.547349,4.64907887 C256.272733,4.64907887 256.037349,4.72736669 255.815041,4.89699031 C255.305041,5.28842942 255.305041,5.90168403 255.305041,6.48884271 L255.305041,9.85521909 L253.605041,9.85521909 L253.605041,5.30147739 C253.605041,4.70127075 253.605041,3.85315267 253.39581,3.29208994 L255.043503,3.29208994 C255.161195,3.55304935 255.187349,3.8401047 255.200426,4.12716005 C255.60581,3.4878095 256.403503,3.14856226 257.148887,3.14856226 C257.828887,3.14856226 258.535041,3.42256964 258.940426,3.98363237 C259.306579,4.49250322 259.332733,5.18404566 259.332733,5.7842523 L259.332733,9.85521909 L257.619656,9.85521909 Z" id="Fill-25" fill="#FEFEFE" mask="url(#mask-2)"></path>
                            <path d="M131.60101,24.8850023 C131.60101,25.4069211 131.862549,25.6939765 132.289728,25.6939765 C132.551267,25.6939765 133.056908,25.5113049 133.136241,24.867605 C133.170241,24.5805497 133.161523,23.9716444 133.161523,23.9716444 C133.161523,23.9716444 132.682036,23.9455484 132.315882,24.0325349 C132.080497,24.0847268 131.60101,24.276097 131.60101,24.8850023 M132.595728,22.1536272 C132.865113,22.1536272 133.214703,22.1797231 133.518959,22.4058879 C133.841523,22.64945 133.806651,23.0756837 133.806651,23.2757526 L133.806651,25.5374008 L134.443933,25.7374697 L134.443933,25.8679494 C134.37419,25.8679494 133.222549,25.9636345 133.222549,25.9636345 L133.152805,25.2851401 C133.022036,25.6504832 132.638446,26.0158264 132.019472,26.0158264 C131.487677,26.0158264 130.938446,25.6852778 130.938446,24.9806874 C130.938446,24.3108916 131.522549,23.9194525 132.237421,23.7889728 C132.507677,23.7454796 132.769215,23.7367809 133.161523,23.7367809 L133.161523,23.1104783 C133.161523,22.6146554 132.786651,22.3884906 132.420497,22.3884906 C131.845113,22.3884906 131.627164,22.9191081 131.496395,23.1974648 L131.121523,22.7277379 C131.522549,22.2754082 132.046497,22.1536272 132.595728,22.1536272" id="Fill-26" fill="#FEFEFE" mask="url(#mask-2)"></path>
                            <path d="M136.561872,25.7722643 C137.006487,25.7722643 137.686487,25.3547292 137.686487,24.0151376 C137.686487,23.0060946 137.345615,22.353696 136.587154,22.353696 C135.829564,22.353696 135.507,23.1278756 135.480846,24.0586308 C135.453821,25.0241807 135.854846,25.7722643 136.561872,25.7722643 M137.676897,22.7364365 L137.676897,20.2573221 L137.041359,20.0920478 L137.041359,19.9702668 L138.305462,19.8397871 L138.305462,25.5374008 L138.941,25.7635657 L138.941,25.8853467 L137.721359,25.9636345 L137.660333,25.2416468 C137.563564,25.5113049 137.189564,26.0332237 136.448538,26.0332237 C135.297769,26.0332237 134.765103,25.1807563 134.765103,24.1108227 C134.765103,22.7625324 135.576744,22.1362299 136.561872,22.1362299 C137.084949,22.1362299 137.485974,22.3884906 137.676897,22.7364365" id="Fill-27" fill="#FEFEFE" mask="url(#mask-2)"></path>
                            <path d="M140.606738,23.092994 C140.528277,23.3626521 140.510841,23.684502 140.510841,24.0672425 L140.510841,25.5547111 L141.060944,25.75478 L141.060944,25.8765611 L139.290328,25.8765611 L139.290328,25.75478 L139.856995,25.5547111 L139.856995,22.6145685 L139.255456,22.4492942 L139.255456,22.3275131 L140.432379,22.1796361 L140.510841,22.7798428 C140.64161,22.5449793 140.929303,22.0926496 141.679046,22.0926496 C142.489815,22.0926496 142.733918,22.5449793 142.873405,22.9016238 C143.100072,22.4058009 143.466226,22.0926496 144.137508,22.0926496 C145.4452,22.0926496 145.471354,22.823336 145.471354,23.7366939 L145.471354,25.5547111 L146.116482,25.75478 L146.116482,25.8765611 L144.215969,25.8765611 L144.215969,25.75478 L144.80879,25.5547111 L144.80879,23.9715574 C144.80879,23.4061453 144.817508,23.0495008 144.72161,22.8059387 C144.599559,22.4840888 144.346738,22.3710063 143.945713,22.3710063 C143.527251,22.3710063 143.240431,22.5884725 143.082636,23.0755968 C143.004174,23.3278575 142.986738,23.6410088 142.986738,24.0672425 L142.986738,25.5460125 L143.579559,25.75478 L143.579559,25.8765611 L141.71479,25.8765611 L141.71479,25.75478 L142.332892,25.5460125 L142.332892,23.9715574 C142.332892,23.4061453 142.34161,23.0495008 142.245713,22.8059387 C142.132379,22.5014861 141.870841,22.379705 141.556995,22.379705 C141.06879,22.379705 140.746226,22.6232671 140.606738,23.092994" id="Fill-28" fill="#FEFEFE" mask="url(#mask-2)"></path>
                            <path d="M147.737759,20.7795019 C147.737759,20.9969681 147.545964,21.1970369 147.319297,21.1970369 C147.083913,21.1970369 146.892118,20.9969681 146.892118,20.7795019 C146.892118,20.5533371 147.083913,20.3532682 147.319297,20.3532682 C147.545964,20.3532682 147.737759,20.5533371 147.737759,20.7795019 L147.737759,20.7795019 Z M146.439656,22.4322448 L146.439656,22.3104638 L147.720323,22.1799841 L147.720323,25.5463604 L148.296579,25.755128 L148.296579,25.876909 L146.49981,25.876909 L146.49981,25.755128 L147.075195,25.5463604 L147.075195,22.5975191 L146.439656,22.4322448 Z" id="Fill-29" fill="#FEFEFE" mask="url(#mask-2)"></path>
                            <path d="M151.277682,22.0927366 C152.559221,22.0927366 152.611528,22.7712311 152.611528,23.5802053 L152.611528,25.5547981 L153.256656,25.754867 L153.256656,25.8766481 L151.337836,25.8766481 L151.337836,25.754867 L151.931528,25.5547981 L151.931528,23.9629457 C151.931528,23.3279445 151.931528,22.9973959 151.826913,22.7712311 C151.695272,22.4928744 151.442451,22.379792 151.085887,22.379792 C150.68399,22.379792 150.30999,22.6146554 150.161785,23.0321905 C150.074605,23.2757526 150.048451,23.4497256 150.048451,23.8759593 L150.048451,25.5547981 L150.588964,25.754867 L150.588964,25.8766481 L148.801785,25.8766481 L148.801785,25.754867 L149.368451,25.5547981 L149.368451,22.6146554 L148.775631,22.4493812 L148.775631,22.3276001 L149.951682,22.1797231 L150.030144,22.7625324 C150.161785,22.5885595 150.475631,22.0927366 151.277682,22.0927366" id="Fill-30" fill="#FEFEFE" mask="url(#mask-2)"></path>
                            <path d="M154.878108,20.7795019 C154.878108,20.9969681 154.686313,21.1970369 154.459646,21.1970369 C154.224262,21.1970369 154.032467,20.9969681 154.032467,20.7795019 C154.032467,20.5533371 154.224262,20.3532682 154.459646,20.3532682 C154.686313,20.3532682 154.878108,20.5533371 154.878108,20.7795019 L154.878108,20.7795019 Z M153.579133,22.4322448 L153.579133,22.3104638 L154.8598,22.1799841 L154.8598,25.5463604 L155.436056,25.755128 L155.436056,25.876909 L153.640159,25.876909 L153.640159,25.755128 L154.215544,25.5463604 L154.215544,22.5975191 L153.579133,22.4322448 Z" id="Fill-31" fill="#FEFEFE" mask="url(#mask-2)"></path>
                            <path d="M157.327503,25.7722643 C157.7634,25.7722643 158.139144,25.5113049 158.139144,25.041578 C158.139144,24.571851 157.623913,24.3456862 157.153144,24.1804119 C156.726836,24.0325349 156.142733,23.8759593 156.142733,23.1365743 C156.142733,22.4145866 156.804426,22.1536272 157.432118,22.1536272 C157.956067,22.1536272 158.303913,22.2928055 158.495708,22.379792 L158.39981,23.1452729 L158.234169,23.1278756 L158.139144,22.6146554 C157.921195,22.4754771 157.650067,22.379792 157.388528,22.379792 C156.970067,22.379792 156.603913,22.5450663 156.603913,22.9278067 C156.603913,23.3714377 157.065964,23.4758215 157.46699,23.6149999 C157.956067,23.7802741 158.643913,24.0412336 158.643913,24.7980158 C158.643913,25.5547981 158.051092,26.0245251 157.310067,26.0158264 C156.874169,26.0158264 156.420836,25.8940454 156.045964,25.6678805 L156.185451,24.719728 L156.360682,24.745824 L156.420836,25.3982225 C156.69981,25.60699 156.970067,25.7722643 157.327503,25.7722643" id="Fill-32" fill="#FEFEFE" mask="url(#mask-2)"></path>
                            <path d="M160.491944,21.1621554 L160.491944,22.2842808 L161.39861,22.2842808 L161.39861,22.5452402 L160.491944,22.5452402 L160.491944,24.6329155 C160.491944,25.1200398 160.500662,25.459287 160.701174,25.6158626 C160.779636,25.6767532 160.875533,25.6941505 160.971431,25.6941505 C161.137072,25.6941505 161.320149,25.6419586 161.477072,25.5636708 L161.546815,25.728945 C161.338456,25.8855207 161.023738,25.9899045 160.71861,25.9899045 C160.43179,25.9899045 160.151944,25.902918 159.986303,25.6854518 C159.846815,25.5027802 159.820662,25.1809303 159.820662,24.8155871 C159.820662,24.5981209 159.829379,24.3719561 159.829379,24.1457913 L159.829379,22.5452402 L159.184251,22.5452402 L159.184251,22.2842808 L159.829379,22.2842808 L159.829379,21.4057175 L160.491944,21.1621554 Z" id="Fill-33" fill="#FEFEFE" mask="url(#mask-2)"></path>
                            <path d="M164.511267,23.6761513 C164.519985,23.0585474 164.319472,22.3365597 163.717933,22.3365597 C162.88101,22.3365597 162.689215,23.389096 162.663062,23.6761513 L164.511267,23.6761513 Z M165.199985,23.7805351 C165.199985,23.832727 165.191267,23.8849189 165.191267,23.9371108 L162.654344,23.9371108 C162.654344,24.0066999 162.644754,24.0849877 162.644754,24.1632756 C162.644754,24.9461538 162.889728,25.755128 163.839113,25.7638266 C164.188703,25.7638266 164.572292,25.6507442 165.121523,25.1288254 L165.260138,25.2767024 C164.842549,25.7725253 164.423215,26.0421833 163.761523,26.0421833 C162.593318,26.0421833 161.930754,25.4245794 161.930754,24.0849877 C161.930754,22.8671772 162.697933,22.1364908 163.717933,22.1364908 C164.746651,22.1364908 165.199985,22.945465 165.199985,23.7805351 L165.199985,23.7805351 Z" id="Fill-34" fill="#FEFEFE" mask="url(#mask-2)"></path>
                            <path d="M165.714256,22.4495551 L165.714256,22.3277741 L166.84759,22.1798971 L166.933897,22.7627064 C167.178872,22.3886646 167.536308,22.1538011 167.989641,22.1538011 C168.163128,22.1538011 168.338359,22.1972944 168.49441,22.3190754 L168.276462,22.945378 C168.137846,22.7105145 167.980923,22.5539389 167.693231,22.5539389 C167.186718,22.5539389 166.952205,23.0062685 166.952205,23.8587359 L166.952205,25.5375748 L167.710667,25.755041 L167.710667,25.876822 L165.74041,25.876822 L165.74041,25.755041 L166.307077,25.5201775 L166.307077,22.6148294 L165.714256,22.4495551 Z" id="Fill-35" fill="#FEFEFE" mask="url(#mask-2)"></path>
                            <path d="M171.450754,23.6761513 C171.459472,23.0585474 171.258087,22.3365597 170.657421,22.3365597 C169.820497,22.3365597 169.628703,23.389096 169.602549,23.6761513 L171.450754,23.6761513 Z M172.139472,23.7805351 C172.139472,23.832727 172.129882,23.8849189 172.129882,23.9371108 L169.593831,23.9371108 C169.593831,24.0066999 169.584241,24.0849877 169.584241,24.1632756 C169.584241,24.9461538 169.829215,25.755128 170.7786,25.7638266 C171.12819,25.7638266 171.510908,25.6507442 172.060138,25.1288254 L172.199626,25.2767024 C171.782036,25.7725253 171.362703,26.0421833 170.70101,26.0421833 C169.532805,26.0421833 168.870241,25.4245794 168.870241,24.0849877 C168.870241,22.8671772 169.637421,22.1364908 170.657421,22.1364908 C171.686138,22.1364908 172.139472,22.945465 172.139472,23.7805351 L172.139472,23.7805351 Z" id="Fill-36" fill="#FEFEFE" mask="url(#mask-2)"></path>
                            <path d="M174.502036,25.7722643 C174.946651,25.7722643 175.626651,25.3547292 175.626651,24.0151376 C175.626651,23.0060946 175.285779,22.353696 174.527318,22.353696 C173.768856,22.353696 173.447164,23.1278756 173.42101,24.0586308 C173.393985,25.0241807 173.79501,25.7722643 174.502036,25.7722643 M175.617062,22.7364365 L175.617062,20.2573221 L174.981523,20.0920478 L174.981523,19.9702668 L176.245626,19.8397871 L176.245626,25.5374008 L176.881164,25.7635657 L176.881164,25.8853467 L175.661523,25.9636345 L175.600497,25.2416468 C175.503728,25.5113049 175.129728,26.0332237 174.387831,26.0332237 C173.237933,26.0332237 172.705267,25.1807563 172.705267,24.1108227 C172.705267,22.7625324 173.516036,22.1362299 174.502036,22.1362299 C175.025113,22.1362299 175.426138,22.3884906 175.617062,22.7364365" id="Fill-37" fill="#FEFEFE" mask="url(#mask-2)"></path>
                            <path d="M180.386651,25.4766843 C180.569728,25.6854518 180.961164,25.8159315 181.293318,25.8159315 C182.322036,25.8159315 182.539985,24.7372993 182.539985,23.9283251 C182.539985,23.0323645 182.234856,22.3973632 181.511267,22.3973632 C180.629882,22.3973632 180.360497,23.4151049 180.360497,24.0675035 L180.360497,24.8242858 C180.360497,25.2244235 180.386651,25.4766843 180.386651,25.4766843 L180.386651,25.4766843 Z M179.069369,20.0922218 L179.069369,19.9704407 L180.386651,19.839961 L180.360497,22.9714739 C180.569728,22.4060619 181.014344,22.1364038 181.598446,22.1364038 C182.583574,22.1364038 183.272292,22.7453091 183.280138,23.980517 C183.289728,25.1026425 182.512959,26.0333977 181.353472,26.0333977 C180.430241,26.0333977 179.889728,25.8159315 179.706651,25.728945 L179.706651,20.2574961 L179.069369,20.0922218 Z" id="Fill-38" fill="#FEFEFE" mask="url(#mask-2)"></path>
                            <path d="M185.111692,22.2842808 L185.111692,22.3886646 L184.657487,22.6061308 L185.730667,25.1287384 C185.730667,25.1287384 186.331333,23.8239414 186.845692,22.5626375 L186.374923,22.3886646 L186.374923,22.2842808 L187.787231,22.2842808 L187.787231,22.3886646 L187.265026,22.5800348 L184.805692,28.094977 L184.300051,28.0253878 C184.980923,26.8510705 185.424667,25.8594247 185.424667,25.8594247 L183.933897,22.6148294 L183.393385,22.3886646 L183.393385,22.2842808 L185.111692,22.2842808 Z" id="Fill-39" fill="#FEFEFE" mask="url(#mask-2)"></path>
                            <polygon id="Fill-40" fill="#FEFEFE" mask="url(#mask-2)" points="196.874821 37.6156462 271.916308 37.6156462 271.916308 19.2032201 196.874821 19.2032201"></polygon>
                            <path d="M217.375774,29.3931631 L217.375774,27.4707621 C218.992954,27.3359331 218.980749,29.5506086 217.375774,29.3931631 M219.728749,26.6635277 C219.130697,26.0781087 218.315569,25.915444 217.283364,25.87717 C217.283364,25.87717 215.888492,25.9041358 215.538031,25.9041358 L215.538031,30.9136866 C216.656544,30.9136866 218.20921,31.0119813 218.989467,30.6892615 C220.441005,30.0855754 220.954492,27.8648108 219.728749,26.6635277" id="Fill-41" fill="#221F20" mask="url(#mask-2)"></path>
                            <path d="M246.377426,25.9625037 L248.170708,25.9625037 C249.055579,27.6648289 249.696349,28.5120771 249.696349,28.5120771 L249.696349,25.9625037 C250.278708,25.9625037 250.885477,25.9694626 251.472195,25.9694626 C251.472195,27.2133692 251.465221,29.0096398 251.465221,30.9276914 L249.605682,30.9276914 C249.300554,30.4136014 248.716451,29.387161 248.163733,28.5573101 C248.163733,28.9704958 248.172451,30.3309642 248.170708,30.9276914 L246.377426,30.9276914 C246.363477,30.2535463 246.402708,27.20815 246.377426,25.9625037" id="Fill-42" fill="#221F20" mask="url(#mask-2)"></path>
                            <path d="M209.021364,26.0096504 L207.171415,29.2516361 L210.940185,29.2516361 L209.053621,25.9409311 L209.021364,26.0096504 Z M210.050954,24.2090305 L213.029877,29.2516361 L211.945364,30.9122078 L205.916903,30.9122078 L204.952697,29.3012184 L207.102544,25.9000474 L208.951621,25.9000474 L209.044903,25.8956981 L208.131262,24.2090305 L210.050954,24.2090305 Z" id="Fill-43" fill="#221F20" mask="url(#mask-2)"></path>
                            <polygon id="Fill-44" fill="#221F20" mask="url(#mask-2)" points="233.869174 25.9039618 233.869174 25.9039618 232.161328 25.9039618 230.346251 30.9135126 232.095072 30.9135126 233.014815 27.9237877 233.935431 30.9135126 235.684251 30.9135126"></polygon>
                            <polygon id="Fill-45" fill="#221F20" mask="url(#mask-2)" points="258.446292 25.9039618 258.446292 25.9039618 256.738446 25.9039618 254.923369 30.9135126 256.67219 30.9135126 257.592805 27.9237877 258.512549 30.9135126 260.261369 30.9135126"></polygon>
                            <polygon id="Fill-46" fill="#221F20" mask="url(#mask-2)" points="224.097226 30.9136866 220.699841 30.9136866 220.699841 25.9050057 224.098969 25.9050057 224.098969 27.2506863 222.514918 27.2506863 222.514918 27.74129 223.918508 27.74129 223.918508 29.0443474 222.525379 29.0443474 222.525379 29.5471292 224.097226 29.5471292"></polygon>
                            <path d="M239.222518,29.3931631 L239.222518,27.4707621 C240.841441,27.3359331 240.828364,29.5506086 239.222518,29.3931631 M241.575492,26.6635277 C240.978313,26.0781087 240.164056,25.915444 239.131851,25.87717 C239.131851,25.87717 237.735236,25.9041358 237.385646,25.9041358 L237.385646,30.9136866 C238.504159,30.9136866 240.056826,31.0119813 240.837082,30.6892615 C242.287749,30.0855754 242.801236,27.8648108 241.575492,26.6635277" id="Fill-47" fill="#221F20" mask="url(#mask-2)"></path>
                            <polygon id="Fill-48" fill="#221F20" mask="url(#mask-2)" points="245.944928 30.9136866 242.547544 30.9136866 242.547544 25.9050057 245.946672 25.9050057 245.946672 27.2506863 244.362621 27.2506863 244.362621 27.74129 245.76621 27.74129 245.76621 29.0443474 244.373082 29.0443474 244.373082 29.5471292 245.944928 29.5471292"></polygon>
                            <polygon id="Fill-49" fill="#221F20" mask="url(#mask-2)" points="224.522923 30.9120338 224.522923 25.9033529 226.331026 25.9033529 226.331026 29.2906061 227.860154 29.2906061 227.860154 30.9120338"></polygon>
                            <polygon id="Fill-50" fill="#221F20" mask="url(#mask-2)" points="260.501462 30.9120338 260.501462 25.9033529 262.309564 25.9033529 262.309564 29.2906061 263.838692 29.2906061 263.838692 30.9120338"></polygon>
                            <polygon id="Fill-51" fill="#221F20" mask="url(#mask-2)" points="227.304297 27.5187786 227.304297 25.9051796 231.123631 25.9051796 231.123631 27.5187786 230.145477 27.5187786 230.145477 30.9138606 228.263272 30.9138606 228.263272 27.5187786"></polygon>
                            <polygon id="Fill-52" fill="#221F20" mask="url(#mask-2)" points="251.848287 27.5187786 251.848287 25.9051796 255.669364 25.9051796 255.669364 27.5187786 254.690338 27.5187786 254.690338 30.9138606 252.809005 30.9138606 252.809005 27.5187786"></polygon>
                            <path d="M264.396467,26.1978891 C264.487133,26.1978891 264.650159,26.2152864 264.650159,26.0969848 C264.650159,26.0204367 264.549031,26.0073887 264.468826,26.0073887 L264.2718,26.0073887 L264.2718,26.1978891 L264.396467,26.1978891 Z M264.743441,26.6441297 L264.618774,26.6441297 L264.396467,26.3022729 L264.2718,26.3022729 L264.2718,26.6441297 L264.166313,26.6441297 L264.166313,25.903005 L264.489749,25.903005 C264.624005,25.903005 264.753903,25.9395393 264.753903,26.0987245 C264.753903,26.2439919 264.651031,26.2987934 264.520262,26.3022729 L264.743441,26.6441297 Z M264.998005,26.2770468 C264.998005,25.9586763 264.731236,25.7055457 264.420005,25.7055457 C264.108774,25.7055457 263.842877,25.9586763 263.842877,26.2770468 C263.842877,26.597157 264.108774,26.8502876 264.420005,26.8502876 C264.731236,26.8502876 264.998005,26.597157 264.998005,26.2770468 L264.998005,26.2770468 Z M263.738262,26.2770468 C263.738262,25.9012652 264.039903,25.6011619 264.420005,25.6011619 C264.800979,25.6011619 265.102621,25.9012652 265.102621,26.2770468 C265.102621,26.6545681 264.800979,26.9546714 264.420005,26.9546714 C264.039903,26.9546714 263.738262,26.6545681 263.738262,26.2770468 L263.738262,26.2770468 Z" id="Fill-53" fill="#221F20" mask="url(#mask-2)"></path>
                            <path d="M198.207359,50.5289616 C198.976282,50.5289616 199.514179,50.1279539 199.514179,48.9553763 C199.514179,48.0246211 199.168077,47.4270241 198.141974,47.4270241 C198.026026,47.4270241 197.899615,47.4313734 197.767974,47.4487707 L197.767974,50.4898177 C197.922282,50.5115643 198.070487,50.5289616 198.207359,50.5289616 M198.229154,47.2565306 C199.316282,47.2565306 200.004128,47.8054152 200.004128,48.944938 C200.004128,50.4080504 198.959718,50.7090236 198.223051,50.7090236 C197.767974,50.7090236 197.312026,50.6985852 196.856077,50.6985852 L196.856077,50.6211672 L197.32859,50.4628519 L197.32859,47.498353 L196.877872,47.3556952 L196.877872,47.2791471 C197.32859,47.2678388 197.779308,47.2565306 198.229154,47.2565306" id="Fill-54" fill="#FEFEFE" mask="url(#mask-2)"></path>
                            <path d="M202.085277,49.3125428 C202.090508,48.9237133 201.964097,48.4679042 201.585738,48.4679042 C201.057431,48.4679042 200.937123,49.1307411 200.920559,49.3125428 L202.085277,49.3125428 Z M202.518559,49.3777826 C202.518559,49.4108375 202.513328,49.4430225 202.513328,49.4769472 L200.915328,49.4769472 C200.915328,49.5195706 200.909226,49.5691529 200.909226,49.6187352 C200.909226,50.1119484 201.063533,50.6216892 201.662456,50.6277782 C201.882149,50.6277782 202.123636,50.5564493 202.468867,50.2267706 L202.55779,50.3198461 C202.293636,50.6329974 202.029482,50.802621 201.612764,50.802621 C200.876969,50.802621 200.459379,50.4137915 200.459379,49.5691529 C200.459379,48.8028021 200.942354,48.3426436 201.585738,48.3426436 C202.233482,48.3426436 202.518559,48.8523844 202.518559,49.3777826 L202.518559,49.3777826 Z" id="Fill-55" fill="#FEFEFE" mask="url(#mask-2)"></path>
                            <polygon id="Fill-56" fill="#FEFEFE" mask="url(#mask-2)" points="202.842169 47.054635 202.842169 46.977217 203.655554 46.8945799 203.655554 50.4845115 204.033913 50.6219501 204.033913 50.6993681 202.870067 50.6993681 202.870067 50.6219501 203.243195 50.4845115 203.243195 47.1581489"></polygon>
                            <path d="M205.122087,47.7282582 L205.122087,48.4345883 L205.693113,48.4345883 L205.693113,48.5989928 L205.122087,48.5989928 L205.122087,49.9150981 C205.122087,50.2212904 205.127318,50.4352771 205.253728,50.5344417 C205.303421,50.5727158 205.363574,50.5831541 205.4246,50.5831541 C205.528344,50.5831541 205.644292,50.5509692 205.742805,50.5013869 L205.787267,50.6057706 C205.654754,50.7040653 205.456856,50.7701751 205.265062,50.7701751 C205.083728,50.7701751 204.907626,50.7153736 204.803882,50.577935 C204.715831,50.4631128 204.699267,50.2604343 204.699267,50.0290503 C204.699267,49.8924816 204.704497,49.7506936 204.704497,49.6080358 L204.704497,48.5989928 L204.298241,48.5989928 L204.298241,48.4345883 L204.704497,48.4345883 L204.704497,47.8822243 L205.122087,47.7282582 Z" id="Fill-57" fill="#FEFEFE" mask="url(#mask-2)"></path>
                            <path d="M206.555754,50.0736744 C206.555754,50.4024832 206.720523,50.5834151 206.989908,50.5834151 C207.154677,50.5834151 207.472882,50.4677231 207.521703,50.0623662 C207.544369,49.8814343 207.539138,49.497824 207.539138,49.497824 C207.539138,49.497824 207.236626,49.4821664 207.006472,49.5369679 C206.858267,49.5691529 206.555754,49.6900641 206.555754,50.0736744 M207.181703,48.3522122 C207.351703,48.3522122 207.571395,48.3696094 207.764062,48.5122673 C207.96719,48.6653634 207.945395,48.9332818 207.945395,49.0594122 L207.945395,50.4851204 L208.346421,50.6103809 L208.346421,50.6930181 C208.302831,50.6930181 207.577497,50.7530387 207.577497,50.7530387 L207.533036,50.3259352 C207.451087,50.5564493 207.2096,50.7852237 206.819908,50.7852237 C206.484267,50.7852237 206.138164,50.5781959 206.138164,50.1336951 C206.138164,49.7118107 206.506062,49.465639 206.956779,49.3830018 C207.126779,49.356036 207.292421,49.349947 207.539138,49.349947 L207.539138,48.9558983 C207.539138,48.642747 207.302882,48.5000892 207.071856,48.5000892 C206.710062,48.5000892 206.572318,48.8349871 206.490369,49.0098299 L206.253241,48.7149457 C206.506062,48.4287602 206.8356,48.3522122 207.181703,48.3522122" id="Fill-58" fill="#FEFEFE" mask="url(#mask-2)"></path>
                            <path d="M211.322554,50.5289616 C212.091477,50.5289616 212.629374,50.1279539 212.629374,48.9553763 C212.629374,48.0246211 212.283272,47.4270241 211.257169,47.4270241 C211.141221,47.4270241 211.01481,47.4313734 210.883169,47.4487707 L210.883169,50.4898177 C211.037477,50.5115643 211.185682,50.5289616 211.322554,50.5289616 M211.344349,47.2565306 C212.431477,47.2565306 213.119323,47.8054152 213.119323,48.944938 C213.119323,50.4080504 212.074913,50.7090236 211.339118,50.7090236 C210.883169,50.7090236 210.427221,50.6985852 209.971272,50.6985852 L209.971272,50.6211672 L210.443785,50.4628519 L210.443785,47.498353 L209.993938,47.3556952 L209.993938,47.2791471 C210.443785,47.2678388 210.894503,47.2565306 211.344349,47.2565306" id="Fill-59" fill="#FEFEFE" mask="url(#mask-2)"></path>
                            <path d="M215.200472,49.3125428 C215.205703,48.9237133 215.079292,48.4679042 214.700933,48.4679042 C214.172626,48.4679042 214.052318,49.1307411 214.035754,49.3125428 L215.200472,49.3125428 Z M215.633754,49.3777826 C215.633754,49.4108375 215.628523,49.4430225 215.628523,49.4769472 L214.030523,49.4769472 C214.030523,49.5195706 214.024421,49.5691529 214.024421,49.6187352 C214.024421,50.1119484 214.178728,50.6216892 214.777651,50.6277782 C214.997344,50.6277782 215.238831,50.5564493 215.584933,50.2267706 L215.672985,50.3198461 C215.408831,50.6329974 215.145549,50.802621 214.727959,50.802621 C213.992164,50.802621 213.574574,50.4137915 213.574574,49.5691529 C213.574574,48.8028021 214.057549,48.3426436 214.700933,48.3426436 C215.348677,48.3426436 215.633754,48.8523844 215.633754,49.3777826 L215.633754,49.3777826 Z" id="Fill-60" fill="#FEFEFE" mask="url(#mask-2)"></path>
                            <path d="M217.589451,48.314373 C218.397605,48.314373 218.429862,48.7414766 218.429862,49.2512173 L218.429862,50.4959937 L218.83699,50.6212542 L218.83699,50.6986722 L217.62781,50.6986722 L217.62781,50.6212542 L218.00181,50.4959937 L218.00181,49.4921698 C218.00181,49.0937718 218.00181,48.8841344 217.935554,48.7414766 C217.853605,48.5666338 217.694067,48.4953049 217.468272,48.4953049 C217.216323,48.4953049 216.980067,48.6431819 216.886785,48.9067509 C216.831862,49.0589772 216.815297,49.16945 216.815297,49.4382382 L216.815297,50.4959937 L217.156169,50.6212542 L217.156169,50.6986722 L216.02981,50.6986722 L216.02981,50.6212542 L216.386374,50.4959937 L216.386374,48.6431819 L216.013246,48.539668 L216.013246,48.4631199 L216.755144,48.3691745 L216.804836,48.7362574 C216.886785,48.6266545 217.084682,48.314373 217.589451,48.314373" id="Fill-61" fill="#FEFEFE" mask="url(#mask-2)"></path>
                            <path d="M219.863441,47.7282582 L219.863441,48.4345883 L220.434467,48.4345883 L220.434467,48.5989928 L219.863441,48.5989928 L219.863441,49.9150981 C219.863441,50.2212904 219.868672,50.4352771 219.995082,50.5344417 C220.044774,50.5727158 220.104928,50.5831541 220.165954,50.5831541 C220.269697,50.5831541 220.385646,50.5509692 220.484159,50.5013869 L220.528621,50.6057706 C220.396108,50.7040653 220.19821,50.7701751 220.006415,50.7701751 C219.825082,50.7701751 219.648979,50.7153736 219.545236,50.577935 C219.457185,50.4631128 219.440621,50.2604343 219.440621,50.0290503 C219.440621,49.8924816 219.445851,49.7506936 219.445851,49.6080358 L219.445851,48.5989928 L219.039595,48.5989928 L219.039595,48.4345883 L219.445851,48.4345883 L219.445851,47.8822243 L219.863441,47.7282582 Z" id="Fill-62" fill="#FEFEFE" mask="url(#mask-2)"></path>
                            <path d="M221.296236,50.0736744 C221.296236,50.4024832 221.461005,50.5834151 221.73039,50.5834151 C221.895159,50.5834151 222.213364,50.4677231 222.262185,50.0623662 C222.284851,49.8814343 222.279621,49.497824 222.279621,49.497824 C222.279621,49.497824 221.977108,49.4821664 221.746954,49.5369679 C221.598749,49.5691529 221.296236,49.6900641 221.296236,50.0736744 M221.922185,48.3522122 C222.092185,48.3522122 222.311877,48.3696094 222.504544,48.5122673 C222.707672,48.6653634 222.685877,48.9332818 222.685877,49.0594122 L222.685877,50.4851204 L223.086903,50.6103809 L223.086903,50.6930181 C223.043313,50.6930181 222.317979,50.7530387 222.317979,50.7530387 L222.273518,50.3259352 C222.191569,50.5564493 221.950082,50.7852237 221.56039,50.7852237 C221.224749,50.7852237 220.878646,50.5781959 220.878646,50.1336951 C220.878646,49.7118107 221.246544,49.465639 221.697262,49.3830018 C221.867262,49.356036 222.032903,49.349947 222.279621,49.349947 L222.279621,48.9558983 C222.279621,48.642747 222.042492,48.5000892 221.812338,48.5000892 C221.450544,48.5000892 221.3128,48.8349871 221.230851,49.0098299 L220.993723,48.7149457 C221.246544,48.4287602 221.576082,48.3522122 221.922185,48.3522122" id="Fill-63" fill="#FEFEFE" mask="url(#mask-2)"></path>
                            <polygon id="Fill-64" fill="#FEFEFE" mask="url(#mask-2)" points="223.25699 47.054635 223.25699 46.977217 224.070374 46.8945799 224.070374 50.4845115 224.448733 50.6219501 224.448733 50.6993681 223.284887 50.6993681 223.284887 50.6219501 223.658015 50.4845115 223.658015 47.1581489"></polygon>
                            <polygon id="Fill-65" fill="#FEFEFE" mask="url(#mask-2)" points="226.223969 50.6989331 226.223969 50.6154261 226.69561 50.4579806 226.69561 47.4926119 226.256226 47.3551732 226.256226 47.2786251 227.580482 47.2786251 227.580482 47.3551732 227.141097 47.4926119 227.141097 50.4579806 227.61361 50.6154261 227.61361 50.6989331"></polygon>
                            <path d="M229.65579,48.314373 C230.463944,48.314373 230.4962,48.7414766 230.4962,49.2512173 L230.4962,50.4959937 L230.903328,50.6212542 L230.903328,50.6986722 L229.694149,50.6986722 L229.694149,50.6212542 L230.068149,50.4959937 L230.068149,49.4921698 C230.068149,49.0937718 230.068149,48.8841344 230.001892,48.7414766 C229.919944,48.5666338 229.760405,48.4953049 229.53461,48.4953049 C229.282662,48.4953049 229.046405,48.6431819 228.953123,48.9067509 C228.8982,49.0589772 228.881636,49.16945 228.881636,49.4382382 L228.881636,50.4959937 L229.222508,50.6212542 L229.222508,50.6986722 L228.096149,50.6986722 L228.096149,50.6212542 L228.452713,50.4959937 L228.452713,48.6431819 L228.079585,48.539668 L228.079585,48.4631199 L228.821482,48.3691745 L228.871174,48.7362574 C228.953123,48.6266545 229.151021,48.314373 229.65579,48.314373" id="Fill-66" fill="#FEFEFE" mask="url(#mask-2)"></path>
                            <path d="M232.050697,50.6326494 C232.324441,50.6326494 232.561569,50.468245 232.561569,50.172491 C232.561569,49.876737 232.237262,49.7340792 231.940851,49.6305653 C231.671467,49.5366199 231.304441,49.4383252 231.304441,48.9729476 C231.304441,48.5171385 231.721159,48.3527341 232.116082,48.3527341 C232.445621,48.3527341 232.665313,48.4405904 232.786492,48.4953919 L232.725467,48.9781668 L232.621723,48.9668585 L232.561569,48.6432689 C232.424697,48.5554125 232.253826,48.4953919 232.089056,48.4953919 C231.824903,48.4953919 231.594749,48.5989058 231.594749,48.8398583 C231.594749,49.1208246 231.885928,49.1860645 232.138749,49.2739208 C232.445621,49.3783046 232.879774,49.5418391 232.879774,50.0193948 C232.879774,50.4960807 232.505774,50.7918347 232.039364,50.7857456 C231.764749,50.7857456 231.479672,50.7091975 231.243415,50.5665397 L231.331467,49.9698125 L231.441313,49.98634 L231.479672,50.3969161 C231.654903,50.5291355 231.824903,50.6326494 232.050697,50.6326494" id="Fill-67" fill="#FEFEFE" mask="url(#mask-2)"></path>
                            <path d="M234.000292,48.391704 C234.000292,48.391704 233.99419,49.2415618 233.99419,49.8104533 C233.99419,50.3689065 234.153728,50.6107289 234.489369,50.6107289 C234.554754,50.6107289 234.840703,50.5881124 235.033369,50.359338 C235.175472,50.1888445 235.175472,50.0357483 235.185933,49.7286861 C235.192036,49.5642816 235.192036,49.388569 235.192036,49.2293837 C235.192036,48.9171023 235.185933,48.6604922 235.185933,48.6326565 L234.823267,48.5169645 L234.823267,48.4412863 L235.614856,48.391704 C235.614856,48.391704 235.604395,49.2128563 235.604395,49.8870014 C235.604395,50.1175156 235.609626,50.3262831 235.609626,50.4845985 L236.005421,50.5828932 L236.005421,50.6594413 C235.977523,50.6594413 235.235626,50.7481675 235.235626,50.7481675 L235.203369,50.4080504 C235.060395,50.545489 234.784908,50.7751333 234.395215,50.7751333 C233.934036,50.7751333 233.577472,50.6211672 233.577472,49.9644194 L233.577472,48.6378757 L233.225267,48.5126152 L233.225267,48.4351972 L234.000292,48.391704 Z" id="Fill-68" fill="#FEFEFE" mask="url(#mask-2)"></path>
                            <path d="M236.296426,48.539494 L236.296426,48.4629459 L237.009554,48.3698704 L237.065349,48.7369533 C237.219656,48.5003501 237.443708,48.3524731 237.730528,48.3524731 C237.840374,48.3524731 237.949349,48.3794389 238.048733,48.4568569 L237.91099,48.8517754 C237.822938,48.7038985 237.724426,48.6047339 237.543092,48.6047339 C237.224015,48.6047339 237.076682,48.8891796 237.076682,49.4276259 L237.076682,50.4845115 L237.553554,50.6219501 L237.553554,50.6993681 L236.312118,50.6993681 L236.312118,50.6219501 L236.669554,50.4740731 L236.669554,48.6430079 L236.296426,48.539494 Z" id="Fill-69" fill="#FEFEFE" mask="url(#mask-2)"></path>
                            <path d="M238.811379,50.0736744 C238.811379,50.4024832 238.976149,50.5834151 239.245533,50.5834151 C239.409431,50.5834151 239.728508,50.4677231 239.777328,50.0623662 C239.799995,49.8814343 239.794764,49.497824 239.794764,49.497824 C239.794764,49.497824 239.492251,49.4821664 239.262097,49.5369679 C239.113892,49.5691529 238.811379,49.6900641 238.811379,50.0736744 M239.437328,48.3522122 C239.607328,48.3522122 239.827892,48.3696094 240.019687,48.5122673 C240.222815,48.6653634 240.201021,48.9332818 240.201021,49.0594122 L240.201021,50.4851204 L240.602046,50.6103809 L240.602046,50.6930181 C240.558456,50.6930181 239.833123,50.7530387 239.833123,50.7530387 L239.788662,50.3259352 C239.706713,50.5564493 239.465226,50.7852237 239.075533,50.7852237 C238.739892,50.7852237 238.39379,50.5781959 238.39379,50.1336951 C238.39379,49.7118107 238.761687,49.465639 239.212405,49.3830018 C239.382405,49.356036 239.547174,49.349947 239.794764,49.349947 L239.794764,48.9558983 C239.794764,48.642747 239.557636,48.5000892 239.327482,48.5000892 C238.965687,48.5000892 238.827072,48.8349871 238.745995,49.0098299 L238.508867,48.7149457 C238.761687,48.4287602 239.091226,48.3522122 239.437328,48.3522122" id="Fill-70" fill="#FEFEFE" mask="url(#mask-2)"></path>
                            <path d="M242.403262,48.314373 C243.211415,48.314373 243.243672,48.7414766 243.243672,49.2512173 L243.243672,50.4959937 L243.6508,50.6212542 L243.6508,50.6986722 L242.441621,50.6986722 L242.441621,50.6212542 L242.815621,50.4959937 L242.815621,49.4921698 C242.815621,49.0937718 242.815621,48.8841344 242.749364,48.7414766 C242.667415,48.5666338 242.507877,48.4953049 242.282082,48.4953049 C242.030133,48.4953049 241.793877,48.6431819 241.700595,48.9067509 C241.645672,49.0589772 241.629108,49.16945 241.629108,49.4382382 L241.629108,50.4959937 L241.969979,50.6212542 L241.969979,50.6986722 L240.843621,50.6986722 L240.843621,50.6212542 L241.200185,50.4959937 L241.200185,48.6431819 L240.827056,48.539668 L240.827056,48.4631199 L241.568954,48.3691745 L241.618646,48.7362574 C241.700595,48.6266545 241.898492,48.314373 242.403262,48.314373" id="Fill-71" fill="#FEFEFE" mask="url(#mask-2)"></path>
                            <path d="M245.089262,50.802534 C244.390954,50.802534 243.924544,50.358903 243.924544,49.581244 C243.924544,48.8244617 244.397056,48.3425567 245.094492,48.3425567 C245.264492,48.3425567 245.638492,48.3695225 245.819826,48.4956528 L245.759672,49.0593252 L245.654185,49.0488868 L245.539979,48.6765847 C245.440595,48.5669817 245.342082,48.4904337 245.149415,48.4904337 C244.567056,48.4904337 244.381364,49.1254349 244.381364,49.5969015 C244.381364,50.0683682 244.533928,50.6276912 245.111056,50.6276912 C245.352544,50.6276912 245.544338,50.5172184 245.819826,50.243211 L245.918338,50.3371564 C245.654185,50.6990201 245.363005,50.802534 245.089262,50.802534" id="Fill-72" fill="#FEFEFE" mask="url(#mask-2)"></path>
                            <path d="M247.851979,49.3125428 C247.85721,48.9237133 247.7308,48.4679042 247.352441,48.4679042 C246.824133,48.4679042 246.703826,49.1307411 246.687262,49.3125428 L247.851979,49.3125428 Z M248.285262,49.3777826 C248.285262,49.4108375 248.280031,49.4430225 248.280031,49.4769472 L246.682031,49.4769472 C246.682031,49.5195706 246.675928,49.5691529 246.675928,49.6187352 C246.675928,50.1119484 246.830236,50.6216892 247.429159,50.6277782 C247.648851,50.6277782 247.890338,50.5564493 248.235569,50.2267706 L248.324492,50.3198461 C248.060338,50.6329974 247.797056,50.802621 247.379467,50.802621 C246.643672,50.802621 246.226082,50.4137915 246.226082,49.5691529 C246.226082,48.8028021 246.709056,48.3426436 247.352441,48.3426436 C248.000185,48.3426436 248.285262,48.8523844 248.285262,49.3777826 L248.285262,49.3777826 Z" id="Fill-73" fill="#FEFEFE" mask="url(#mask-2)"></path>
                            <path d="M250.575467,49.0653272 C250.575467,49.7777464 250.938133,50.6154261 251.778544,50.6154261 C252.047056,50.6154261 252.414954,50.4901656 252.629415,50.3318502 L252.827313,49.7829656 L252.931928,49.7942738 L252.871774,50.5667137 C252.629415,50.6928441 252.211826,50.7911388 251.712287,50.7911388 C250.619928,50.7911388 250.102954,50.0735004 250.102954,49.0270532 C250.102954,47.941462 250.673979,47.1916387 251.811672,47.1916387 C252.557928,47.1916387 252.904031,47.4265021 252.904031,47.4265021 L252.832544,48.1015171 L252.734031,48.089339 L252.634646,47.6352697 C252.519569,47.5639408 252.289415,47.3603924 251.772441,47.3603924 C250.860544,47.3603924 250.575467,48.3798738 250.575467,49.0653272" id="Fill-74" fill="#FEFEFE" mask="url(#mask-2)"></path>
                            <path d="M254.518944,50.6597892 C255.018482,50.6597892 255.232944,50.1674458 255.232944,49.5420131 C255.232944,48.9609435 255.018482,48.4790384 254.518944,48.4790384 C254.014174,48.4790384 253.799713,48.9609435 253.799713,49.5420131 C253.799713,50.1674458 254.014174,50.6597892 254.518944,50.6597892 M255.700226,49.5533213 C255.700226,50.3257612 255.17279,50.7972278 254.518944,50.7972278 C253.865969,50.7972278 253.338533,50.3257612 253.338533,49.5533213 C253.338533,48.7913199 253.756123,48.3424697 254.518944,48.3424697 C255.288738,48.3424697 255.700226,48.7913199 255.700226,49.5533213" id="Fill-75" fill="#FEFEFE" mask="url(#mask-2)"></path>
                            <path d="M256.930067,48.944764 C256.880374,49.1143876 256.869913,49.3179359 256.869913,49.5588885 L256.869913,50.4957327 L257.215144,50.6218631 L257.215144,50.6992811 L256.10099,50.6992811 L256.10099,50.6218631 L256.457554,50.4957327 L256.457554,48.6429209 L256.078323,48.539407 L256.078323,48.4628589 L256.820221,48.3697834 L256.869913,48.7473047 C256.951862,48.5985578 257.132323,48.3141121 257.604836,48.3141121 C258.115708,48.3141121 258.270015,48.5985578 258.358067,48.8238528 C258.501041,48.5124412 258.731195,48.3141121 259.154015,48.3141121 C259.977862,48.3141121 259.994426,48.7751404 259.994426,49.3501209 L259.994426,50.4957327 L260.400682,50.6218631 L260.400682,50.6992811 L259.202836,50.6992811 L259.202836,50.6218631 L259.576836,50.4957327 L259.576836,49.4979979 C259.576836,49.1422233 259.582938,48.9177982 259.522785,48.7638321 C259.445195,48.5611537 259.285656,48.4898247 259.033708,48.4898247 C258.769554,48.4898247 258.588221,48.6272634 258.489708,48.9334557 C258.440015,49.0935108 258.429554,49.2901003 258.429554,49.5588885 L258.429554,50.4896437 L258.802682,50.6218631 L258.802682,50.6992811 L257.627503,50.6992811 L257.627503,50.6218631 L258.017195,50.4896437 L258.017195,49.4979979 C258.017195,49.1422233 258.023297,48.9177982 257.963144,48.7638321 C257.891656,48.571592 257.726015,48.4950439 257.528118,48.4950439 C257.221246,48.4950439 257.017246,48.64901 256.930067,48.944764" id="Fill-76" fill="#FEFEFE" mask="url(#mask-2)"></path>
                            <path d="M262.087605,50.6326494 C262.675195,50.6326494 262.768477,49.9150111 262.768477,49.4765993 C262.768477,48.9068379 262.560118,48.4901727 262.120733,48.4901727 C261.538374,48.4901727 261.384067,49.1799754 261.384067,49.5975105 C261.384067,50.0907237 261.511349,50.6326494 262.087605,50.6326494 L262.087605,50.6326494 Z M260.588118,48.5449742 L260.588118,48.4684261 L261.390169,48.3744807 L261.379708,48.8398583 C261.533144,48.4953919 261.818221,48.3422957 262.186118,48.3422957 C262.90099,48.3422957 263.234887,48.8520364 263.234887,49.5148733 C263.234887,50.2159843 262.829503,50.7970539 262.098938,50.7970539 C261.785092,50.7970539 261.554938,50.7039784 261.390169,50.4308408 L261.390169,51.8487203 L261.846118,51.9809397 L261.846118,52.0635769 L260.626477,52.0635769 L260.626477,51.9870288 L260.989144,51.8539395 L260.989144,48.6493579 L260.588118,48.5449742 Z" id="Fill-77" fill="#FEFEFE" mask="url(#mask-2)"></path>
                            <path d="M264.113831,50.0736744 C264.113831,50.4024832 264.2786,50.5834151 264.547985,50.5834151 C264.711882,50.5834151 265.030959,50.4677231 265.079779,50.0623662 C265.102446,49.8814343 265.097215,49.497824 265.097215,49.497824 C265.097215,49.497824 264.794703,49.4821664 264.564549,49.5369679 C264.416344,49.5691529 264.113831,49.6900641 264.113831,50.0736744 M264.739779,48.3522122 C264.909779,48.3522122 265.130344,48.3696094 265.322138,48.5122673 C265.525267,48.6653634 265.503472,48.9332818 265.503472,49.0594122 L265.503472,50.4851204 L265.904497,50.6103809 L265.904497,50.6930181 C265.860908,50.6930181 265.135574,50.7530387 265.135574,50.7530387 L265.091113,50.3259352 C265.009164,50.5564493 264.767677,50.7852237 264.377985,50.7852237 C264.042344,50.7852237 263.696241,50.5781959 263.696241,50.1336951 C263.696241,49.7118107 264.064138,49.465639 264.514856,49.3830018 C264.684856,49.356036 264.849626,49.349947 265.097215,49.349947 L265.097215,48.9558983 C265.097215,48.642747 264.860087,48.5000892 264.629933,48.5000892 C264.268138,48.5000892 264.129523,48.8349871 264.048446,49.0098299 L263.811318,48.7149457 C264.064138,48.4287602 264.393677,48.3522122 264.739779,48.3522122" id="Fill-78" fill="#FEFEFE" mask="url(#mask-2)"></path>
                            <path d="M267.705713,48.314373 C268.513867,48.314373 268.546123,48.7414766 268.546123,49.2512173 L268.546123,50.4959937 L268.953251,50.6212542 L268.953251,50.6986722 L267.744072,50.6986722 L267.744072,50.6212542 L268.118072,50.4959937 L268.118072,49.4921698 C268.118072,49.0937718 268.118072,48.8841344 268.052687,48.7414766 C267.969867,48.5666338 267.810328,48.4953049 267.584533,48.4953049 C267.332585,48.4953049 267.096328,48.6431819 267.003046,48.9067509 C266.948123,49.0589772 266.931559,49.16945 266.931559,49.4382382 L266.931559,50.4959937 L267.272431,50.6212542 L267.272431,50.6986722 L266.146072,50.6986722 L266.146072,50.6212542 L266.502636,50.4959937 L266.502636,48.6431819 L266.129508,48.539668 L266.129508,48.4631199 L266.871405,48.3691745 L266.921097,48.7362574 C267.003046,48.6266545 267.200944,48.314373 267.705713,48.314373" id="Fill-79" fill="#FEFEFE" mask="url(#mask-2)"></path>
                            <path d="M269.958431,48.4350233 L269.958431,48.5002631 L269.672482,48.6377017 L270.348123,50.2269446 C270.348123,50.2269446 270.727354,49.4049224 271.05079,48.6107359 L270.754379,48.5002631 L270.754379,48.4350233 L271.644482,48.4350233 L271.644482,48.5002631 L271.314944,48.6211743 L269.765764,52.0954139 L269.447559,52.0519207 C269.87561,51.3125357 270.156328,50.687103 270.156328,50.687103 L269.216533,48.6429209 L268.876533,48.5002631 L268.876533,48.4350233 L269.958431,48.4350233 Z" id="Fill-80" fill="#FEFEFE" mask="url(#mask-2)"></path>
                            <g id="Group-83" mask="url(#mask-2)">
                                <g transform="translate(118.564103, -0.096468)">
                                    <path d="M0.750005128,0.736949373 L0.750005128,24.0580219" id="Fill-81" stroke="none" fill="#FEFEFE" fill-rule="evenodd"></path>
                                    <path d="M0.750005128,0.736949373 L0.750005128,24.0580219" id="Stroke-82" stroke="#FEFEFE" stroke-width="0.5" fill="none"></path>
                                </g>
                            </g>
                            <path d="M109.285938,1.50103852 C109.165631,1.44536718 108.997374,1.44884664 108.865733,1.44884664 L108.605067,1.44884664 L108.605067,2.26390986 L108.960759,2.26390986 C109.249323,2.26390986 109.502144,2.18475218 109.502144,1.84463508 C109.502144,1.6889293 109.428913,1.56540851 109.285938,1.50103852 L109.285938,1.50103852 Z M109.573631,3.80444025 L108.997374,2.72754775 L108.605067,2.72754775 L108.605067,3.80444025 L108.061938,3.80444025 L108.061938,0.986078622 L108.825631,0.986078622 C109.052297,0.986078622 109.292913,0.97824984 109.509118,1.05827739 C109.866554,1.18527764 110.057477,1.48103164 110.057477,1.85333373 C110.057477,2.21171798 109.884862,2.48398563 109.557938,2.63534209 L110.205682,3.80444025 L109.573631,3.80444025 Z" id="Fill-84" fill="#FEFEFE" mask="url(#mask-2)"></path>
                            <path d="M108.976015,4.54895744 C107.829605,4.54895744 106.900272,3.62168167 106.900272,2.47780959 C106.900272,1.33480738 107.829605,0.406661747 108.976015,0.406661747 C110.121554,0.406661747 111.050015,1.33480738 111.050015,2.47780959 C111.050015,3.62168167 110.121554,4.54895744 108.976015,4.54895744 M108.976015,0.000434932349 C107.604682,0.000434932349 106.492272,1.10951242 106.492272,2.47780959 C106.492272,3.8452369 107.604682,4.95518426 108.976015,4.95518426 C110.346477,4.95518426 111.458887,3.8452369 111.458887,2.47780959 C111.458887,1.10951242 110.346477,0.000434932349 108.976015,0.000434932349" id="Fill-85" fill="#FEFEFE" mask="url(#mask-2)"></path>
                            <path d="M12.1727846,20.476615 C14.7227846,20.6027454 17.5787846,20.0451621 18.6380154,19.8442234 L17.0103744,24.2466086 L10.6297077,24.2466086 L12.1727846,20.476615 Z" id="Fill-86" fill="#FEFEFE" mask="url(#mask-2)"></path>
                            <path d="M20.1722,0.996430012 L14.2963026,15.3178824 C16.5280974,15.1639164 18.9516872,14.6280797 20.6237897,14.4967301 L25.6409692,0.996430012 L20.1722,0.996430012 Z" id="Fill-87" fill="#FEFEFE" mask="url(#mask-2)"></path>
                            <path d="M92.2467949,13.5032577 L92.2467949,4.82896689 L93.9651026,4.82896689 C96.5316667,4.82896689 97.8768462,6.64524438 97.8768462,9.17394106 C97.8768462,11.8766107 96.3747436,13.5032577 93.9651026,13.5032577 L92.2467949,13.5032577 Z M67.4895641,13.5032577 L67.4895641,4.82896689 L68.7336154,4.82896689 C71.9627436,4.82896689 73.1274615,6.86705988 73.1274615,9.17394106 C73.1274615,11.8592134 71.6393077,13.5032577 68.7336154,13.5032577 L67.4895641,13.5032577 Z M44.3442821,7.4185541 L46.9378718,14.3426771 C46.8114615,14.3209305 45.5151026,14.1617452 44.3442821,14.1617452 C43.2440769,14.1617452 41.8204359,14.3244099 41.701,14.3426771 L44.3442821,7.4185541 Z M32.5715641,22.212343 C31.7590513,21.730438 30.1314103,20.8640527 28.0051026,20.3360449 L29.4200256,24.2469566 L38.0943846,24.2469566 L40.0105897,19.0973575 C40.1213077,19.0764808 42.1063846,18.727665 44.3442821,18.727665 C46.5874103,18.727665 48.4844359,19.0834397 48.6056154,19.1069261 L50.4756154,24.2469566 L67.4895641,24.2469566 L67.4895641,14.8828631 L74.608641,24.2469566 L92.2467949,24.2469566 L92.2467949,17.3506692 L96.1524359,17.3506692 C102.643821,17.3506692 106.583462,14.1478274 106.583462,9.17394106 C106.583462,4.45231547 102.992538,0.996343026 96.1524359,0.996343026 L83.7860256,0.996343026 L83.7860256,23.2918451 L77.1438205,16.0867558 C78.1655641,15.6239878 81.8358205,13.8285871 81.8358205,9.17394106 C81.8358205,4.52538411 78.0600769,0.996343026 70.3516667,0.996343026 L59.0174615,0.996343026 L59.0174615,22.4524257 L50.7258205,0.996343026 L41.2433077,0.996343026 L35.2767436,15.5752754 L29.6405897,0.996343026 L20.9880256,0.996343026 L25.8901282,14.4879445 C25.7244872,14.4557595 24.1971026,14.1600055 22.1283333,14.1600055 C17.4241282,14.1600055 15.9115641,14.9959455 12.1079231,14.9959455 C6.85535897,14.9959455 2.29325641,12.0566727 1.82074359,11.7496104 L-0.000435897436,16.1963588 C0.245410256,16.3598933 4.97576923,19.6932149 11.8376667,19.6932149 C16.0580256,19.6932149 18.6428974,18.702439 22.7063333,18.702439 C27.9623846,18.702439 31.6213077,20.5517713 32.9316154,21.3276906 L32.5715641,22.212343 Z" id="Fill-88" fill="#FEFEFE" mask="url(#mask-2)"></path>
                        </g>
                    </g>
                </g>
            </g>
        </g>
    </g>
</svg>