<svg width="14" height="13" viewBox="0 0 14 13" xmlns="http://www.w3.org/2000/svg"><title>6CE96D71-CFEC-450A-A3AB-1EDC41880D81</title><g fill="#000" fill-rule="evenodd"><path d="M11.878.122a.42.42 0 0 0-.592 0L7 4.827 2.714.122a.42.42 0 0 0-.591.596l4.56 5.005A.4.4 0 0 0 7 5.84c.114.009.23-.029.317-.117l4.56-5.005a.424.424 0 0 0 0-.596"/><path d="M13.548 5.164a.564.564 0 0 0-.795 0L7 11.48 1.247 5.164a.564.564 0 0 0-.794.8l6.122 6.72A.538.538 0 0 0 7 12.84a.54.54 0 0 0 .425-.157l6.123-6.72a.57.57 0 0 0 0-.8"/></g></svg>