<?xml version="1.0" encoding="UTF-8"?>
<svg width="262px" height="64px" viewBox="0 0 262 64" version="1.1" xmlns="http://www.w3.org/2000/svg" xmlns:xlink="http://www.w3.org/1999/xlink">
    <!-- Generator: Sketch 42 (36781) - http://www.bohemiancoding.com/sketch -->
    <title>logo--unbounded-alternate</title>
    <desc>Created with Sketch.</desc>
    <defs>
        <rect id="path-1" x="0" y="0" width="262" height="64.4340196"></rect>
        <mask id="mask-2" maskContentUnits="userSpaceOnUse" maskUnits="objectBoundingBox" x="0" y="0" width="262" height="64.4340196" fill="white">
            <use xlink:href="#path-1"></use>
        </mask>
    </defs>
    <g id="Styleguide" stroke="none" stroke-width="1" fill="none" fill-rule="evenodd">
        <g id="logo--unbounded-alternate">
            <use id="Padding-Space" stroke-opacity="0" stroke="#FFFFFF" mask="url(#mask-2)" stroke-width="2" xlink:href="#path-1"></use>
            <g id="DD_Signature_unbounded_K" transform="translate(29.000000, 18.000000)" fill="#000000">
                <g id="Delta-Dental-Logo">
                    <path d="M17.6990224,0 L28.0426069,17.5415275 L24.2627291,23.3220163 L3.34995927,23.3220163 L0,17.7160489 L7.46185336,5.88264766 L13.880835,5.88264766 L14.2085947,5.88264766 L11.0374134,0 L17.6990224,0 L17.6990224,0 Z M14.1234623,6.26148676 L7.70448065,17.5415275 L20.7850713,17.5415275 L14.238391,6.02737271 L14.1234623,6.26148676 Z" id="Shape"></path>
                    <path d="M51.2965173,8.54303462 C49.2192872,6.50411405 46.3928921,5.93798371 42.8088187,5.80602851 C42.8088187,5.80602851 37.9647862,5.89967413 36.7473931,5.89967413 L36.7473931,23.3220163 C40.6336864,23.3220163 46.0183096,23.6668024 48.729776,22.543055 C53.7653564,20.4445418 55.5403666,12.7145214 51.2837475,8.538778 M43.1280652,18.0352953 L43.1280652,11.3481466 C48.7425458,10.8799185 48.6999796,18.5843992 43.1280652,18.0395519" id="delta-d"></path>
                    <polygon id="delta-e" points="66.4628513 23.3220163 54.6677597 23.3220163 54.6677597 5.89967413 66.4671079 5.89967413 66.4671079 10.5819552 60.967556 10.5819552 60.967556 12.2888595 65.8413849 12.2888595 65.8413849 16.8221589 61.0058656 16.8221589 61.0058656 18.5673727 66.4628513 18.5673727"></polygon>
                    <polygon id="delta-l" points="67.9356415 23.3177597 67.9356415 5.8911609 74.2184114 5.8911609 74.2184114 17.6777393 79.5264155 17.6777393 79.5264155 23.3177597"></polygon>
                    <polygon id="delta-t" points="77.5939104 11.5141548 77.5939104 5.89967413 90.853279 5.89967413 90.853279 11.5141548 87.4564969 11.5141548 87.4564969 23.3262729 80.9225866 23.3262729 80.9225866 11.5141548"></polygon>
                    <polygon id="delta-a" points="100.383849 5.89541752 100.383849 5.89541752 94.4543788 5.89541752 94.4543788 5.89541752 88.1545825 23.3262729 94.2245214 23.3262729 97.4212424 12.9230957 100.617963 23.3262729 106.683646 23.3262729"></polygon>
                    <g id="delta-d-link" transform="translate(112.459878, 5.533605)">
                        <path d="M14.6895927,3.00942974 C12.6123625,0.970509165 9.78596741,0.404378819 6.20189409,0.272423625 C6.20189409,0.272423625 1.35786151,0.366069246 0.140468432,0.366069246 L0.140468432,17.7884114 C4.02676171,17.7884114 9.41138493,18.1331976 12.1228513,17.0094501 C17.1584318,14.9109369 18.933442,7.1809165 14.6768228,3.00517312 M6.52114053,12.5016904 L6.52114053,5.81454175 C12.1356212,5.34631365 12.093055,13.0507943 6.52114053,12.505947" id="delta-d"></path>
                    </g>
                    <g id="delta-e-link" transform="translate(130.337678, 5.533605)">
                        <polygon id="delta-e" points="11.9781263 17.7884114 0.183034623 17.7884114 0.183034623 0.366069246 11.9823829 0.366069246 11.9823829 5.04835031 6.48283096 5.04835031 6.48283096 6.75525458 11.3566599 6.75525458 11.3566599 11.288554 6.52114053 11.288554 6.52114053 13.0337678 11.9781263 13.0337678"></polygon>
                    </g>
                    <path d="M143.809878,6.09973523 L150.033055,6.09973523 C153.106334,12.0249491 155.324033,14.9705295 155.324033,14.9705295 L155.324033,6.09973523 C157.350183,6.09973523 159.45721,6.12527495 161.487617,6.12527495 L161.487617,23.3730957 L155.013299,23.3730957 C153.957658,21.5853157 151.927251,18.0140122 150.011772,15.1237678 C150.011772,16.5625051 150.041568,21.2958656 150.033055,23.3730957 L143.809878,23.3730957 C143.758798,21.0276986 143.899267,10.4329735 143.809878,6.09973523" id="Shape"></path>
                    <g id="delta-t-link" transform="translate(162.645418, 5.533605)">
                        <polygon id="delta-t" points="0.123441955 5.9805499 0.123441955 0.366069246 13.3828106 0.366069246 13.3828106 5.9805499 9.98602851 5.9805499 9.98602851 17.792668 3.45211813 17.792668 3.45211813 5.9805499"></polygon>
                    </g>
                    <g id="delta-a-link" transform="translate(173.457230, 5.533605)">
                        <polygon id="delta-a" points="12.271833 0.361812627 12.271833 0.361812627 6.34236253 0.361812627 6.34236253 0.361812627 0.0425661914 17.792668 6.11250509 17.792668 9.30922607 7.38949084 12.505947 17.792668 18.5716293 17.792668"></polygon>
                    </g>
                    <g id="delta-l-link" transform="translate(192.569450, 5.533605)">
                        <polygon id="delta-l" points="0.255397149 17.7841548 0.255397149 0.357556008 6.53816701 0.357556008 6.53816701 12.1441344 11.8461711 12.1441344 11.8461711 17.7841548"></polygon>
                    </g>
                    <path d="M204.075092,7.19794297 C204.069924,6.23995282 204.642798,5.37333662 205.526221,5.00274622 C206.409643,4.63215583 207.429344,4.83069596 208.109192,5.50566165 C208.78904,6.18062733 208.994924,7.19887109 208.63071,8.08494113 C208.266496,8.97101117 207.404031,9.55011639 206.446029,9.55185336 C205.818833,9.55754925 205.215487,9.31179076 204.770776,8.8694794 C204.326065,8.42716803 204.077046,7.82516049 204.079348,7.19794297 L204.075092,7.19794297 Z M208.450896,7.19794297 C208.456068,6.38590767 207.970891,5.65095011 207.222148,5.33660715 C206.473404,5.02226419 205.608989,5.19062577 205.03295,5.76299564 C204.456911,6.33536551 204.28303,7.19868748 204.592582,7.9494241 C204.902134,8.70016072 205.633977,9.19002426 206.446029,9.19004073 C207.547362,9.18774692 208.441565,8.29923936 208.450896,7.19794297 L208.450896,7.19794297 Z M207.569776,8.47492872 L207.144114,8.47492872 L206.373666,7.28733198 L205.948004,7.28733198 L205.948004,8.4706721 L205.586191,8.4706721 L205.586191,5.8911609 L206.709939,5.8911609 C207.17391,5.8911609 207.629369,6.01885947 207.629369,6.57221996 C207.629369,7.12558045 207.271813,7.26604888 206.816354,7.27881874 L207.569776,8.47492872 Z M206.365153,6.92551935 C206.684399,6.92551935 207.246273,6.98511202 207.246273,6.57647658 C207.246273,6.31256619 206.89723,6.26148676 206.62055,6.26148676 L205.930978,6.26148676 L205.930978,6.92551935 L206.35664,6.92551935 L206.365153,6.92551935 Z" id="Shape"></path>
                </g>
            </g>
        </g>
    </g>
</svg>