<svg xmlns="http://www.w3.org/2000/svg" xmlns:xlink="http://www.w3.org/1999/xlink" viewBox="0 0 612 150.51" shape-rendering="geometricPrecision" width="262" height="64"><defs><style>.a{fill:#43b02a;}.b{fill:#fff;}</style></defs><title>Delta Dental Logo</title><rect class="a" width="622" height="160" x="-5" y="-5" shape-rendering="crispEdges"/><path class="b" d="M107.45,40.93l24.3,41.21L122.9,95.71H73.74L65.88,82.55,83.4,54.74H98.49l0.77,0L91.8,40.93h15.65Zm-8.4,14.71L84,82.14h30.74L99.32,55.08Z" transform="translate(0 0)"/><path id="delta-d" class="b" d="M186.38,61c-4.88-4.79-11.52-6.12-19.94-6.43,0,0-11.38.22-14.24,0.22V95.72c9.13,0,21.79.81,28.15-1.83,11.83-4.93,16-23.09,6-32.9M167.19,83.3V67.58c13.19-1.1,13.09,17,0,15.72" transform="translate(0 0)"/><polygon id="delta-e" class="b" points="222.02 95.72 194.3 95.72 194.3 54.79 222.02 54.79 222.02 65.78 209.1 65.78 209.1 69.8 220.55 69.8 220.55 80.45 209.19 80.45 209.19 84.55 222.02 84.55 222.02 95.72"/><polygon id="delta-l" class="b" points="225.48 95.71 225.48 54.77 240.23 54.77 240.23 82.46 252.7 82.46 252.7 95.71 225.48 95.71"/><polygon id="delta-t" class="b" points="248.16 67.98 248.16 54.79 279.31 54.79 279.31 67.98 271.34 67.98 271.34 95.72 255.99 95.72 255.99 67.98 248.16 67.98"/><polygon id="delta-a" class="b" points="301.71 54.78 301.71 54.78 287.78 54.78 287.77 54.78 272.98 95.72 287.24 95.72 294.74 71.29 302.25 95.72 316.51 95.72 301.71 54.78"/><use x="178.2" xlink:href="#delta-d"/><use x="178.2" xlink:href="#delta-e"/><path class="b" d="M403.72,55.26h14.62c7.22,13.92,12.43,20.84,12.43,20.84V55.26c4.76,0,9.71.06,14.49,0.06,0,10.17,0,24.84,0,40.52H430c-2.48-4.2-7.25-12.59-11.75-19.38,0,3.38.06,14.5,0.05,19.38H403.72c-0.12-5.51.21-30.4,0-40.58" transform="translate(0 0)"/><use x="200.1" xlink:href="#delta-t"/><use x="200.5" xlink:href="#delta-a"/><use x="293.4" xlink:href="#delta-l"/><path class="b" d="M545.31,57.83a5.56,5.56,0,1,1,5.56,5.53,5.51,5.51,0,0,1-5.56-5.53m10.27,0a4.71,4.71,0,1,0-4.71,4.68,4.72,4.72,0,0,0,4.71-4.68m-2.07,3h-1L550.67,58h-1v2.79H548.8V54.77h2.64c1.09,0,2.16.3,2.16,1.6S552.75,58,551.68,58Zm-2.83-3.64c0.75,0,2.07.14,2.07-.82,0-.62-0.82-0.74-1.47-0.74h-1.62v1.56h1Z" transform="translate(0 0)"/></svg>
