<?xml version="1.0" encoding="UTF-8"?>
<svg width="262px" height="64px" viewBox="0 0 262 64" version="1.1" xmlns="http://www.w3.org/2000/svg" xmlns:xlink="http://www.w3.org/1999/xlink">
    <!-- Generator: Sketch 42 (36781) - http://www.bohemiancoding.com/sketch -->
    <title>logo--primary</title>
    <desc>Created with Sketch.</desc>
    <defs></defs>
    <g id="Styleguide" stroke="none" stroke-width="1" fill="none" fill-rule="evenodd">
        <g id="logo--primary">
            <g id="DeltaDentalLogo_bounding_RGB">
                <g id="Delta-Dental-Logo">
                    <rect id="Rectangle-path" fill="#43B02A" x="0" y="0" width="262" height="64.4340196"></rect>
                    <path d="M45.9998366,17.5223203 L56.4027778,35.1645098 L52.6140523,40.9738889 L31.5684314,40.9738889 L28.2035294,35.3400327 L35.7039216,23.4344444 L42.1640196,23.4344444 L42.4936601,23.4344444 L39.3,17.5223203 L45.9998366,17.5223203 L45.9998366,17.5223203 Z M42.4037582,23.8197386 L35.9607843,35.1645098 L49.120719,35.1645098 L42.5193464,23.58 L42.4037582,23.8197386 Z" id="Shape" fill="#FFFFFF"></path>
                    <path d="M79.7901307,26.1143791 C77.7009804,24.0637582 74.858366,23.4943791 71.2537255,23.3616667 C71.2537255,23.3616667 66.3818954,23.4558497 65.1575163,23.4558497 L65.1575163,40.9781699 C69.0661111,40.9781699 74.485915,41.3249346 77.2086601,40.1947386 C82.2731373,38.084183 84.0583333,30.3098039 79.7772876,26.110098 M71.5748039,35.6611111 L71.5748039,28.9313072 C77.2215033,28.4603922 77.1786928,36.209085 71.5748039,35.6611111" id="delta-d" fill="#FFFFFF"></path>
                    <polygon id="delta-e" fill="#FFFFFF" points="95.0477778 40.9781699 83.180719 40.9781699 83.180719 23.4558497 95.0477778 23.4558497 95.0477778 28.160719 89.5166667 28.160719 89.5166667 29.8816993 94.4184641 29.8816993 94.4184641 34.4410131 89.5551961 34.4410131 89.5551961 36.1962418 95.0477778 36.1962418"></polygon>
                    <polygon id="delta-l" fill="#FFFFFF" points="96.5290196 40.9738889 96.5290196 23.4472876 102.843562 23.4472876 102.843562 35.3015033 108.182026 35.3015033 108.182026 40.9738889"></polygon>
                    <polygon id="delta-t" fill="#FFFFFF" points="106.238431 29.102549 106.238431 23.4558497 119.573889 23.4558497 119.573889 29.102549 116.161895 29.102549 116.161895 40.9781699 109.59049 40.9781699 109.59049 29.102549"></polygon>
                    <polygon id="delta-a" fill="#FFFFFF" points="129.163431 23.4515686 129.163431 23.4515686 123.199935 23.4515686 123.195654 23.4515686 116.863987 40.9781699 122.968758 40.9781699 126.179542 30.5195752 129.394608 40.9781699 135.499379 40.9781699"></polygon>
                    <g id="delta-d-link" transform="translate(141.360131, 23.117647)" fill="#FFFFFF">
                        <path d="M14.7182353,2.99673203 C12.629085,0.946111111 9.78647059,0.376732026 6.18183007,0.244019608 C6.18183007,0.244019608 1.31,0.338202614 0.085620915,0.338202614 L0.085620915,17.8605229 C3.99421569,17.8605229 9.41401961,18.2072876 12.1367647,17.0770915 C17.2012418,14.9665359 18.9864379,7.19215686 14.7053922,2.99245098 M6.5029085,12.5434641 L6.5029085,5.81366013 C12.1496078,5.3427451 12.1067974,13.0914379 6.5029085,12.5434641" id="delta-d"></path>
                    </g>
                    <g id="delta-e-link" transform="translate(159.340523, 23.117647)" fill="#FFFFFF">
                        <polygon id="delta-e" points="11.9954902 17.8605229 0.128431373 17.8605229 0.128431373 0.338202614 11.9954902 0.338202614 11.9954902 5.0430719 6.46437908 5.0430719 6.46437908 6.76405229 11.3661765 6.76405229 11.3661765 11.323366 6.5029085 11.323366 6.5029085 13.0785948 11.9954902 13.0785948"></polygon>
                    </g>
                    <path d="M172.834379,23.6570588 L179.093268,23.6570588 C182.184183,29.6162745 184.414608,32.5787582 184.414608,32.5787582 L184.414608,23.6570588 C186.452386,23.6570588 188.571503,23.6827451 190.617843,23.6827451 L190.617843,41.0295425 L184.084967,41.0295425 C183.023268,39.2315033 180.981209,35.6397059 179.054739,32.7328758 C179.054739,34.1798693 179.080425,38.9403922 179.076144,41.0295425 L172.834379,41.0295425 C172.783007,38.6706863 172.924281,28.0151634 172.834379,23.6570588" id="Shape" fill="#FFFFFF"></path>
                    <g id="delta-t-link" transform="translate(191.833660, 23.117647)" fill="#FFFFFF">
                        <polygon id="delta-t" points="0.068496732 5.98490196 0.068496732 0.338202614 13.4039542 0.338202614 13.4039542 5.98490196 9.99196078 5.98490196 9.99196078 17.8605229 3.42055556 17.8605229 3.42055556 5.98490196"></polygon>
                    </g>
                    <g id="delta-a-link" transform="translate(202.279412, 23.117647)" fill="#FFFFFF">
                        <polygon id="delta-a" points="12.7189869 0.333921569 12.7189869 0.333921569 6.7554902 0.333921569 6.75120915 0.333921569 0.419542484 17.8605229 6.52431373 17.8605229 9.73509804 7.4019281 12.9501634 17.8605229 19.0549346 17.8605229"></polygon>
                    </g>
                    <g id="delta-l-link" transform="translate(221.929412, 23.117647)" fill="#FFFFFF">
                        <polygon id="delta-l" points="0.205490196 17.8562418 0.205490196 0.329640523 6.52003268 0.329640523 6.52003268 12.1838562 11.8584967 12.1838562 11.8584967 17.8562418"></polygon>
                    </g>
                    <path d="M233.449706,24.7572876 C233.444505,23.79341 234.021128,22.9215464 234.910146,22.5490771 C235.799165,22.1766078 236.825057,22.3770706 237.508473,23.0567986 C238.191888,23.7365266 238.397898,24.7613193 238.030244,25.6523398 C237.66259,26.5433603 236.793859,27.1246919 235.829967,27.1247059 C235.199172,27.1304345 234.592364,26.8832657 234.145101,26.4384161 C233.697838,25.9935665 233.44739,25.3881044 233.449706,24.7572876 L233.449706,24.7572876 Z M237.84634,24.7572876 C237.851542,23.9405924 237.36358,23.2014173 236.61054,22.8852705 C235.8575,22.5691237 234.988125,22.7384514 234.40878,23.3141058 C233.829436,23.8897602 233.654556,24.7580364 233.965885,25.5130811 C234.277213,26.2681258 235.013256,26.7608004 235.829967,26.760817 C236.937621,26.75851 237.836955,25.8649038 237.84634,24.7572876 L237.84634,24.7572876 Z M236.960163,26.0416013 L236.532059,26.0416013 L235.744346,24.8300654 L235.316242,24.8300654 L235.316242,26.0244771 L234.943791,26.0244771 L234.943791,23.4472876 L236.073987,23.4472876 C236.540621,23.4472876 236.998693,23.575719 236.998693,24.1322549 C236.998693,24.6887908 236.634804,24.8300654 236.176732,24.8300654 L236.960163,26.0416013 Z M235.748627,24.4833007 C236.069706,24.4833007 236.634804,24.5432353 236.634804,24.1322549 C236.634804,23.8668301 236.283758,23.8154575 236.00549,23.8154575 L235.311961,23.8154575 L235.311961,24.4833007 L235.740065,24.4833007 L235.748627,24.4833007 Z" id="Shape" fill="#FFFFFF"></path>
                </g>
            </g>
        </g>
    </g>
</svg>