<svg xmlns="http://www.w3.org/2000/svg" xmlns:xlink="http://www.w3.org/1999/xlink" viewBox="0 0 490.55 54.91" shape-rendering="geometricPrecision" width="209" height="24"><defs><style>path,polygon{fill:#fff;}</style></defs><title>Delta Dental Logo</title><path d="M41.58,0l24.3,41.21L57,54.79H7.87L0,41.62l17.53-27.8H32.61l0.77,0L25.93,0H41.58Zm-8.4,14.71L18.1,41.21H48.83L33.45,14.16Z"/><path id="delta-d" d="M120.51,20.07c-4.88-4.79-11.52-6.12-19.94-6.43,0,0-11.38.22-14.24,0.22V54.79c9.13,0,21.78.81,28.15-1.83,11.83-4.93,16-23.09,6-32.9M101.32,42.37V26.66c13.19-1.1,13.09,17,0,15.72"/><polygon id="delta-e" points="156.14 54.79 128.43 54.79 128.43 13.86 156.15 13.86 156.15 24.86 143.23 24.86 143.23 28.87 154.68 28.87 154.68 39.52 143.32 39.52 143.32 43.62 156.14 43.62 156.14 54.79"/><polygon id="delta-l" points="159.6 54.78 159.6 13.84 174.36 13.84 174.36 41.53 186.83 41.53 186.83 54.78 159.6 54.78"/><polygon id="delta-t" points="182.29 27.05 182.29 13.86 213.44 13.86 213.44 27.05 205.46 27.05 205.46 54.8 190.11 54.8 190.11 27.05 182.29 27.05"/><polygon id="delta-a" points="235.83 13.85 235.83 13.85 221.9 13.85 221.9 13.85 207.1 54.8 221.36 54.8 228.87 30.36 236.38 54.8 250.63 54.8 235.83 13.85"/><use x="178.2" xlink:href="#delta-d"/><use x="178.2" xlink:href="#delta-e"/><path d="M337.85,14.33h14.62c7.22,13.92,12.43,20.84,12.43,20.84V14.33c4.76,0,9.71.06,14.48,0.06,0,10.17,0,24.84,0,40.52H364.17c-2.48-4.2-7.25-12.59-11.75-19.38,0,3.38.07,14.5,0.05,19.38H337.85c-0.12-5.51.21-30.4,0-40.58"/><use x="200.1" xlink:href="#delta-t"/><use x="200.5" xlink:href="#delta-a"/><use x="293.4" xlink:href="#delta-l"/><path d="M479.43,16.91A5.56,5.56,0,1,1,485,22.44a5.51,5.51,0,0,1-5.56-5.53m10.27,0A4.71,4.71,0,1,0,485,21.59a4.72,4.72,0,0,0,4.71-4.68m-2.07,3h-1l-1.81-2.79h-1V19.9h-0.85V13.84h2.64c1.09,0,2.16.3,2.16,1.6s-0.84,1.63-1.91,1.66Zm-2.83-3.64c0.75,0,2.07.14,2.07-.82,0-.62-0.82-0.74-1.47-0.74h-1.62v1.56h1Z"/></svg>