<svg id="Layer_1" data-name="Layer 1" xmlns="http://www.w3.org/2000/svg" viewBox="0 0 25 16"><defs><style>.cls-1{fill:#fff;}.cls-2{fill:#ff5f00;}.cls-3{fill:#eb001b;}.cls-4{fill:#f79e1b;}</style></defs><title>MC</title><rect width="25" height="16"/><path id="_Compound_Path_" data-name=" Compound Path " class="cls-1" d="M6.86,14.75v-.91a.53.53,0,0,0-.48-.58H6.3a.6.6,0,0,0-.52.26.53.53,0,0,0-.49-.26.52.52,0,0,0-.44.21v-.18H4.57v1.46h.29v-.83a.34.34,0,0,1,.3-.38h.07c.21,0,.33.14.33.38v.83h.29v-.83a.34.34,0,0,1,.3-.38h.07c.21,0,.33.14.33.38v.83Zm4.74-1.46h-.53v-.44h-.29v.44h-.3v.26h.3v.68c0,.33.12.53.49.53a.85.85,0,0,0,.39-.11l-.09-.26a.5.5,0,0,1-.27.08.21.21,0,0,1-.23-.24v-.68h.53Zm2.7,0a.46.46,0,0,0-.39.21v-.18h-.29v1.46h.29v-.82c0-.24.12-.39.32-.39l.2,0,.09-.27A.52.52,0,0,0,14.3,13.26Zm-4.08.15a1,1,0,0,0-.59-.15c-.36,0-.59.17-.59.46s.17.38.49.43l.15,0c.17,0,.27.09.27.17s-.12.18-.35.18a.8.8,0,0,1-.49-.15L9,14.58a1.1,1.1,0,0,0,.62.18c.43,0,.65-.2.65-.47s-.18-.38-.5-.43l-.15,0c-.14,0-.26-.06-.26-.15s.12-.18.29-.18a1.09,1.09,0,0,1,.46.12Zm4.4.61a.72.72,0,0,0,.67.76h.09a.76.76,0,0,0,.52-.17l-.15-.23a.61.61,0,0,1-.38.14.49.49,0,0,1,0-1,.61.61,0,0,1,.38.14l.15-.23a.76.76,0,0,0-.52-.17.69.69,0,0,0-.76.73Zm-2-.76a.7.7,0,0,0-.71.76.71.71,0,0,0,.67.76h.08a.93.93,0,0,0,.59-.2l-.15-.21a.73.73,0,0,1-.43.15.43.43,0,0,1-.44-.38h1.08V14A.68.68,0,0,0,12.58,13.26Zm0,.26a.36.36,0,0,1,.38.35v0h-.79A.42.42,0,0,1,12.57,13.52ZM8.63,14v-.73H8.35v.18a.56.56,0,0,0-.47-.21.76.76,0,1,0,0,1.52.56.56,0,0,0,.47-.21v.18h.29ZM7.47,14a.46.46,0,1,1,.46.49A.45.45,0,0,1,7.47,14Zm11.22-.76a.46.46,0,0,0-.39.21v-.18H18v1.46h.29v-.82c0-.24.12-.39.32-.39l.2,0,.09-.27A.52.52,0,0,0,18.68,13.26ZM17.56,14v-.73h-.29v.18a.56.56,0,0,0-.47-.21.76.76,0,0,0,0,1.52.56.56,0,0,0,.47-.21v.18h.29Zm-1.17,0a.46.46,0,1,1,.46.49.45.45,0,0,1-.46-.49Zm4.1,0V12.71H20.2v.76a.56.56,0,0,0-.47-.21.76.76,0,1,0,0,1.52.56.56,0,0,0,.47-.21v.18h.29Zm-1.17,0a.46.46,0,1,1,.46.49.45.45,0,0,1-.46-.49Z"/><g id="_Group_" data-name=" Group "><rect class="cls-2" x="9.88" y="2.24" width="5.27" height="8.59"/><path id="_Path_" data-name=" Path " class="cls-3" d="M10.41,6.54a5.48,5.48,0,0,1,2.08-4.3,5.46,5.46,0,1,0,0,8.59A5.48,5.48,0,0,1,10.41,6.54Z"/><path class="cls-4" d="M21.34,6.54a5.46,5.46,0,0,1-8.83,4.3,5.48,5.48,0,0,0,0-8.59,5.46,5.46,0,0,1,8.83,4.3Z"/></g></svg>