<svg id="Layer_1" data-name="Layer 1" xmlns="http://www.w3.org/2000/svg" viewBox="0 0 25 16"><defs><style>.cls-1{fill:#fff;}.cls-2{fill:#f7b600;}.cls-3{fill:#1a1f71;}</style></defs><title>Visa</title><rect class="cls-1" width="25" height="16"/><rect class="cls-2" x="0.41" y="13.39" width="24.17" height="2.18"/><rect class="cls-3" x="0.41" y="0.42" width="24.17" height="2.18"/><path class="cls-3" d="M10.08,5l-2.5,6H6L4.73,6.21a.65.65,0,0,0-.37-.53,6.74,6.74,0,0,0-1.52-.51l0-.17H5.49a.71.71,0,0,1,.71.62l.64,3.48L8.44,5h1.64Zm6.38,4c0-1.58-2.18-1.67-2.16-2.38,0-.22.21-.45.66-.51a3,3,0,0,1,1.52.26l.28-1.27a4,4,0,0,0-1.44-.26c-1.52,0-2.59.82-2.61,2,0,.87.77,1.34,1.35,1.64s.8.48.8.74-.48.59-.92.59a3.09,3.09,0,0,1-1.58-.39l-.28,1.31a4.71,4.71,0,0,0,1.72.32c1.6,0,2.66-.79,2.67-2m4,2h1.43L20.67,5H19.35a.71.71,0,0,0-.66.43L16.38,11H18l.32-.9h2ZM18.77,8.87l.81-2.26L20,8.87ZM12.28,5,11,11H9.47l1.27-6Z"/></svg>